<svg xmlns="http://www.w3.org/2000/svg" viewBox="0 0 180 45">
    <defs>
        <style>.aston-martin-logo-svg-1{fill:#fff;}</style>
    </defs>
    <path class="aston-martin-logo-svg-1"
          d="m4.93044,5.76868c.14682-.24565.50809-.38633.98881-.38633h69.50424c1.07094,0,2.23925-.00499,3.59161,1.26399.82375.7734,1.01771,1.63679,1.78745,2.45944H8.98757c-2.13809,0-2.38681,0-3.01964-.93334l-.90513-1.41683c-.23428-.36706-.28446-.73555-.13236-.98693m4.69528,4.80963h39.97718v1.34255l-34.49543,1.906c-2.79753.18139-3.27748.20422-4.23433-1.25473-.31185-.51559-.91579-1.5125-.9211-1.5225-.1065-.17568-.21601-.33206-.32632-.47132m5.39429,4.72677c.67923-.03855,1.34401-.08068,1.595-.09426l32.98789-1.81601v1.66605l-28.60598,3.01787c-3.1056.33278-3.73005.39991-4.73941-.88551-.24719-.34207-.47158-.70913-.69518-1.09189-.18103-.30851-.36055-.57131-.54233-.79626m5.60269,4.29474l28.9802-3.05572v1.76745l-17.72385,2.76651-.00381.00072c-2.32825.37563-3.8008.49846-5.38591.12783l-5.86663-1.60678Zm28.9802.20494v2.22092l-6.6204,1.58607-.00381.00071c-2.01031.49204-3.24327.657-4.18034.657-1.40484,0-2.20882-.29637-7.17717-1.6582l17.98172-2.80651Zm-7.82065,5.58873c.49059-.09783,1.01846-.21567,1.59045-.35491l8.40328-2.01311h5.99439c-6.18759,2.91505-8.18497,3.86982-9.7237,3.86982-.842,0-1.55698-.2128-6.26442-1.5018m7.05015,2.91862c.3012-.04142.61914-.10641.96674-.20138,1.93044-.52774,4.75308-1.93313,11.47464-5.08527h5.48326c-3.314,2.28091-8.3812,5.75012-10.58243,7.16265-1.01237.64985-2.2925,1.2083-3.47525,1.2083-1.28772,0-1.84829-.52488-2.61194-1.58393-.39781-.54273-.75453-1.02476-1.25501-1.50037m5.6544,4.28687c1.12495-.32778,2.08257-.88051,2.57239-1.19472,2.65456-1.7039,9.41718-6.3557,12.34783-8.3788h4.60782c-2.87134,2.86292-7.49664,7.45401-9.44228,9.28145-.82528.77483-1.98445,1.80602-3.63955,1.80602-.62828,0-.5005-.005-6.44622-1.51395m9.11522,2.31233c1.03138-.53774,1.7456-1.25043,2.08027-1.56321,2.20959-2.07453,7.83128-7.67111,10.48661-10.32264h4.21228c-2.36552,3.72487-5.52054,8.65516-6.91399,10.70326-.67772.99835-1.7943,2.54014-3.91946,2.54014-.79864,0-.82222-.05713-5.94572-1.35755m8.57516,2.17522c1.49918-.81196,2.32293-2.1388,2.61271-2.56584,1.62696-2.39445,5.35244-8.24026,7.41676-11.49523h3.79165c-.84123,2.46872-3.8913,11.45524-4.44046,12.82135-.48223,1.20044-1.13712,2.72723-3.03638,2.72723-.645,0-.4982-.00428-6.34429-1.48751m9.90854,1.13188c.29967-.41276.57731-.94978.94011-1.85243.56361-1.40182,3.72169-10.70684,4.61998-13.34053h3.49883c.89829,2.63369,4.05634,11.9387,4.62072,13.34053.36206.90265.63891,1.43967.93937,1.85243-.1065-.07498-.21223-.15639-.3187-.24423l-4.45113-3.95625c-.69748-.61986-1.4885-1.19472-2.53969-1.19472s-1.84221.57416-2.53892,1.19472l-4.45264,3.95625c-.10497.08784-.21146.16925-.31794.24423M173.72765,6.75561l-.90588,1.41683c-.63211.93334-.88081.93334-3.01892.93334h-71.81496c.76899-.82265.9637-1.68604,1.78668-2.45944,1.35239-1.26898,2.52144-1.26399,3.5924-1.26399h69.50419c.48072,0,.84125.14068.98884.38633.15209.25139.1019.61987-.13236.98693m-4.88922,4.29402c-.00534.01-.61001,1.00692-.92189,1.5225-.95685,1.45895-1.43678,1.43611-4.23357,1.25473l-34.4954-1.906v-1.34255h39.97713c-.11105.13926-.21903.29565-.32627.47132m-5.61033,5.05171c-.22437.38276-.44874.74982-.6952,1.09189-1.00931,1.28541-1.63381,1.21829-4.73941.88551l-28.60593-3.01787v-1.66605l32.98787,1.81601c.25023.01358.91502.0557,1.59426.09426-.18027.22495-.36132.48776-.54159.79626m-10.92697,5.10525c-1.58516.37063-3.05769.2478-5.38517-.12783l-.00455-.00072-17.72385-2.76651v-1.76745l28.98016,3.05572-5.86659,1.60678Zm-5.13113,1.40468c-4.96986,1.36183-5.77304,1.6582-7.17793,1.6582-.93628,0-2.17001-.16496-4.18032-.657l-.00455-.00071-6.61963-1.58607v-2.22092l17.98244,2.80651Zm-16.42625,4.28402c-1.53873,0-3.53609-.95478-9.72291-3.86982h5.99439l8.40177,2.01311c.57274.13925,1.10137.25708,1.59045.35491-4.70672,1.289-5.4217,1.5018-6.2637,1.5018m-2.04146,2.9172c-.76368,1.05905-1.32425,1.58393-2.61123,1.58393-1.18349,0-2.4636-.55844-3.47523-1.2083-2.20121-1.41253-7.26844-4.88174-10.58243-7.16265h5.48252c6.7223,3.15214,9.5442,4.55753,11.4754,5.08527.34684.09498.66554.15996.96674.20138-.5005.47561-.85722.95764-1.25578,1.50037m-10.8441,4.30045c-1.6566,0-2.81579-1.03119-3.64105-1.80602-1.94564-1.82743-6.56943-6.41853-9.44228-9.28145h4.60782c2.93065,2.0231,9.69327,6.6749,12.34781,8.3788.48982.3142,1.4482.86694,2.57316,1.19472-5.94495,1.50895-5.81793,1.51395-6.44545,1.51395m-8.61623,2.15593c-2.12516,0-3.24023-1.54179-3.91869-2.54014-1.39345-2.0481-4.54849-6.9784-6.91475-10.70326h4.21228c2.65684,2.65154,8.27777,8.24812,10.48736,10.32264.33391.31278,1.04814,1.02547,2.08029,1.56321-5.1235,1.30042-5.14785,1.35755-5.94648,1.35755m-8.973,2.30519c-1.89924,0-2.55489-1.52679-3.03712-2.72723-.54841-1.36611-3.59848-10.35263-4.44048-12.82135h3.79168c2.06583,3.25497,5.7898,9.10078,7.41751,11.49523.29057.42704,1.11356,1.75388,2.61271,2.56584-5.84683,1.48323-5.70004,1.48751-6.34429,1.48751m27.59281-16.7933H50.92787v-11.42953h76.93391v11.42953Zm47.47154-16.79403c-.45714-.75838-1.35392-1.19329-2.46216-1.19329h-69.50419c-1.17289,0-2.94511,0-4.78808,1.73032-.60393.5663-.93937,1.12902-1.23372,1.62534-.57274.96122-.98575,1.65533-2.88652,1.65533h-10.12759c-1.90077,0-2.31378-.69412-2.88578-1.65533-.29512-.49632-.63056-1.05905-1.23372-1.62534-1.84221-1.73032-3.6152-1.73032-4.78806-1.73032H5.91925c-1.10745,0-2.00499.43491-2.46288,1.19329-.45484.75627-.39704,1.7232.15592,2.58728l1.25274,1.96026c.67468,1.08546,1.56459,1.25329,2.21492,1.3754.58947.11141.9462.17853,1.40334.92837l1.1006,1.82028c.85416,1.48824,1.8848,1.67104,2.63629,1.80459.57882.10212,1.12419.14854,1.85894,1.40397.71649,1.224,1.79808,3.07287,4.42374,3.80769.25861.0707,25.89893,7.09052,25.93087,7.09981,2.7002.82196,3.40907,1.75745,4.2526,2.92862.50048.69413,1.82928,2.53728,5.12654,3.37066l24.65762,6.25572c2.63783.66841,4.30662-.54417,5.07482-1.18116l4.47319-3.97623c.61459-.5463,1.00021-.75983,1.37595-.75983.37652,0,.76291.21353,1.37671.75983l4.47395,3.97623c.77431.642,2.44384,1.84744,5.07406,1.18116l24.65836-6.25572c3.29649-.83338,4.62608-2.67724,5.12654-3.37066.83824-1.15617,1.53038-2.10023,4.25186-2.92862.03194-.00928,25.67229-7.02911,25.93166-7.09981,2.62487-.73483,3.708-2.58369,4.42372-3.80769.70282-1.20258,1.22913-1.294,1.78668-1.39111.74084-.12998,1.82317-.27636,2.70704-1.81673l1.10285-1.821c.4564-.74984.81238-.81697,1.40262-.92837.65031-.12211,1.53947-.28994,2.21411-1.37468l1.2535-1.96098c.55222-.86408.61155-1.83101.1552-2.58728"/>
    <path class="aston-martin-logo-svg-1"
          d="m118.97167,19.38273v-6.63419h.73169l4.22674,4.50611v-4.50611h.99947v6.63419h-.74237l-4.21611-4.5161v4.5161h-.99942Zm-2.73137-6.63491h1.34628v6.63491h-1.34628v-6.63491Zm-4.39408,6.63491v-5.82654c-.57958.01144-1.19036.04999-2.11755.15927l.07987-.96692h5.43231l.07911.96692c-1.16831-.13712-1.80115-.15284-2.12744-.15927v5.82654h-1.3463Zm-7.31331,0v-6.57849c.39324-.0457.86558-.08356,1.5836-.08356.6336,0,1.18428.06998,1.65282.20852.67998.20281,1.48395.65914,1.48395,1.65891,0,.4149-.13691.78554-.41072,1.10976-.27307.32564-.65414.5563-1.14245.6927l2.48416,2.99216h-1.63379l-2.21643-2.83436h-.45486v2.83436h-1.34628Zm1.34628-3.61417c.19169.03071.37956.0457.56438.0457,1.15158,0,1.43528-.62128,1.43528-1.16117,0-.81409-.61306-1.15188-1.49461-1.15188-.15896,0-.32706.00928-.50505.02785v2.2395Zm-8.68925,3.61417l2.96867-6.63419h.77278l2.96869,6.63419h-1.55394l-.68304-1.6632h-2.66139l-.69293,1.6632h-1.11885Zm2.1282-2.43445h2.03844l-1.01922-2.48086-1.01922,2.48086Zm-10.69805,2.43445l.79179-6.63419h.72259l2.51383,4.62752,2.42483-4.62752h.72183l.79181,6.63419h-1.4353l-.4054-4.09763-1.97988,3.82769h-.65261l-2.00954-3.78127-.4054,4.05121h-1.07855Zm-9.72143,0v-6.63419h.73246l4.22598,4.50611v-4.50611h.99947v6.63419h-.74314l-4.21532-4.5161v4.5161h-.99944Zm-4.65118.14853c-2.10994,0-3.56271-1.43753-3.56271-3.46564,0-2.05382,1.46875-3.46564,3.56271-3.46564,2.08942,0,3.56274,1.40682,3.56274,3.46564,0,2.02811-1.45278,3.46564-3.56274,3.46564m0-.80839c1.09986,0,2.09854-.82624,2.09854-2.65725,0-.1521.03955-1.62249-.98498-2.33232-.31413-.2171-.68455-.32492-1.11356-.32492-1.46722,0-2.09777,1.27898-2.09777,2.65723,0,1.81959.99336,2.65725,2.09777,2.65725m-7.06533.65986v-5.82654c-.58035.01144-1.19113.04999-2.11832.15927l.07911-.96692h5.43305l.07987.96692c-1.1721-.13782-1.80265-.15284-2.1282-.15927v5.82654h-1.34551Zm-6.72994-.30708l-.11789-1.19829c.67847.53917,1.39498.80839,2.14721.80839.42824,0,.75149-.07927.96904-.23709.41682-.30208.41605-.83338.11409-1.17045-.2571-.28636-.70586-.46204-1.77603-.94334-.95003-.42704-1.42541-1.04976-1.42541-1.86745,0-.56985.20766-1.02333.62371-1.3611.91198-.74056,2.41724-.45777,2.56784-.43205.28674.04927.56589.12712.83668.2321l.11789,1.14258c-.32328-.21636-.62448-.37419-.90437-.47346-.96523-.33991-1.99511-.11069-1.99511.66914,0,.3799.26165.64199.8017.90122,1.24285.58844,1.82775.81766,2.27196,1.34183.54307.64414.5712,1.88957-.30197,2.53727-.45561.33779-1.08617.50631-1.89014.50631-1.05497,0-1.76233-.30921-2.03921-.45561m-7.13532.30708l2.96943-6.63419h.77201l2.96869,6.63419h-1.55394l-.68304-1.6632h-2.66139l-.69293,1.6632h-1.11885Zm2.1282-2.43445h2.03844l-1.01922-2.48086-1.01922,2.48086Z"/>
</svg>