<?xml version="1.0" encoding="UTF-8"?>
<svg version="1.1" xmlns="http://www.w3.org/2000/svg" width="300" height="150">
<path d="M0 0 C1.37739853 -0.00503792 1.37739853 -0.00503792 2.78262329 -0.01017761 C5.78909694 -0.01960343 8.79551449 -0.02162596 11.80200195 -0.02270508 C13.90468874 -0.02592164 16.00737532 -0.02928601 18.11006165 -0.03279114 C22.5035555 -0.0387601 26.89702973 -0.04063315 31.29052734 -0.04003906 C36.91604286 -0.03993714 42.54143301 -0.05363001 48.16691875 -0.07081127 C52.50351031 -0.08193069 56.84007144 -0.08395835 61.1766758 -0.08342934 C63.25108081 -0.08460797 65.32548664 -0.08902319 67.39987755 -0.0967617 C70.29792487 -0.10656766 73.1956982 -0.10368194 76.09375 -0.09765625 C76.9463591 -0.10327576 77.7989682 -0.10889526 78.67741394 -0.11468506 C83.30118975 -0.09027691 87.00068689 0.37513929 91.3527832 2.14526367 C91.3527832 3.13526367 91.3527832 4.12526367 91.3527832 5.14526367 C91.8890332 4.92870117 92.4252832 4.71213867 92.9777832 4.48901367 C104.07930509 0.54505195 116.41764425 0.72914986 127.3527832 5.14526367 C127.3527832 4.15526367 127.3527832 3.16526367 127.3527832 2.14526367 C132.55026165 0.03601871 137.05384235 -0.13983582 142.56420898 -0.11352539 C143.92649376 -0.11878235 143.92649376 -0.11878235 145.31629944 -0.12414551 C148.31030999 -0.13292648 151.30408285 -0.12712349 154.2980957 -0.12036133 C156.39069667 -0.12170972 158.48329732 -0.12365171 160.57589722 -0.12615967 C164.96216819 -0.12910661 169.34835765 -0.12482967 173.73461914 -0.11547852 C179.3293774 -0.10412663 184.92394285 -0.11061911 190.51869392 -0.12262344 C194.842676 -0.12988985 199.16661326 -0.12753154 203.49059677 -0.12236786 C205.55166522 -0.12104235 207.61273787 -0.12264017 209.67380142 -0.12732697 C232.72396047 -0.16821654 232.72396047 -0.16821654 240.3527832 2.14526367 C242.3527832 4.14526367 242.3527832 4.14526367 242.5402832 7.27026367 C241.53567631 12.84367923 236.57944837 15.84014443 232.3527832 19.14526367 C228.55384196 21.75565424 224.63993937 24.12560949 220.6652832 26.45776367 C219.5716748 27.10438965 218.47806641 27.75101563 217.35131836 28.41723633 C203.04043142 36.78197767 188.4325301 44.10890555 173.0402832 50.27026367 C172.10361816 50.64908691 171.16695312 51.02791016 170.2019043 51.41821289 C164.53548167 53.60623747 159.39409119 54.70951956 153.3527832 55.14526367 C149.34074273 55.65849581 147.6235568 56.46145956 144.7902832 59.33276367 C138.11781373 65.4628585 129.37452321 69.87905455 120.3527832 71.14526367 C118.84844727 71.36182617 118.84844727 71.36182617 117.3137207 71.58276367 C103.55965945 73.0730457 90.06821165 70.85863335 78.3527832 63.14526367 C76.73868332 61.72105789 75.15368566 60.26304032 73.6027832 58.77026367 C70.24876947 55.52959258 70.24876947 55.52959258 65.6027832 54.89526367 C64.94149414 54.96100586 64.28020508 55.02674805 63.59887695 55.09448242 C42.37112195 55.57441427 13.66393798 36.20424035 -3.8347168 25.52026367 C-4.68356445 25.00625 -5.53241211 24.49223633 -6.40698242 23.96264648 C-21.31275806 14.64800962 -21.31275806 14.64800962 -23.42944336 9.09204102 C-23.7097168 7.14526367 -23.7097168 7.14526367 -23.6472168 4.14526367 C-16.91144136 -0.85224713 -8.04273869 -0.00430561 0 0 Z M-13.6472168 7.14526367 C-13.9772168 7.80526367 -14.3072168 8.46526367 -14.6472168 9.14526367 C-3.86022788 10.22432752 6.83688876 10.26328316 17.6652832 10.20776367 C19.38858918 10.20273473 21.1118966 10.19817431 22.83520508 10.1940918 C27.0077673 10.18320567 31.18025889 10.16601932 35.3527832 10.14526367 C27.06573963 5.82961417 19.14486755 5.86227321 9.9777832 5.95776367 C8.80989258 5.9584082 7.64200195 5.95905273 6.4387207 5.9597168 C-3.66733298 5.83975083 -3.66733298 5.83975083 -13.6472168 7.14526367 Z M183.3527832 9.14526367 C183.3527832 9.47526367 183.3527832 9.80526367 183.3527832 10.14526367 C188.38411105 10.17029132 193.41540134 10.18827601 198.44677734 10.20019531 C200.15251295 10.20517298 201.8582444 10.21195753 203.56396484 10.22070312 C213.55195559 10.27056975 223.40426998 10.14045158 233.3527832 9.14526367 C232.8577832 8.15526367 232.8577832 8.15526367 232.3527832 7.14526367 C224.84513157 5.46881738 216.62607356 5.92956094 208.9777832 5.89526367 C207.83567383 5.87463867 206.69356445 5.85401367 205.5168457 5.83276367 C197.70881383 5.79727262 190.82595135 6.89056038 183.3527832 9.14526367 Z M36.3527832 7.14526367 C36.3527832 7.47526367 36.3527832 7.80526367 36.3527832 8.14526367 C46.54800028 11.12404014 55.81824923 11.4859013 66.3527832 11.14526367 C59.5872528 7.19870427 52.45841285 6.85923243 44.8527832 7.02026367 C44.03036133 7.02928711 43.20793945 7.03831055 42.3605957 7.04760742 C40.35786238 7.07089502 38.35528167 7.10675409 36.3527832 7.14526367 Z M63.3527832 7.14526367 C65.98760082 8.54501053 68.45649029 9.55750409 71.3527832 10.27026367 C72.0127832 10.4378418 72.6727832 10.60541992 73.3527832 10.77807617 C75.66958605 11.26564745 75.66958605 11.26564745 79.3527832 11.14526367 C79.0227832 10.15526367 78.6927832 9.16526367 78.3527832 8.14526367 C75.06758845 7.05019875 72.61614905 7.04565759 69.1652832 7.08276367 C68.07860352 7.09178711 66.99192383 7.10081055 65.87231445 7.11010742 C65.04086914 7.12170898 64.20942383 7.13331055 63.3527832 7.14526367 Z M139.3527832 9.14526367 C139.3527832 9.80526367 139.3527832 10.46526367 139.3527832 11.14526367 C144.86086717 10.55511182 150.00156389 9.57862599 155.3527832 8.14526367 C155.3527832 7.81526367 155.3527832 7.48526367 155.3527832 7.14526367 C153.43643103 7.09102729 151.51963395 7.05236404 149.6027832 7.02026367 C148.53543945 6.99706055 147.4680957 6.97385742 146.3684082 6.94995117 C143.42808214 7.1403868 141.82916442 7.61856263 139.3527832 9.14526367 Z M152.3527832 10.14526367 C152.3527832 10.47526367 152.3527832 10.80526367 152.3527832 11.14526367 C162.88731718 11.4859013 172.15756612 11.12404014 182.3527832 8.14526367 C182.3527832 7.81526367 182.3527832 7.48526367 182.3527832 7.14526367 C171.89417271 6.83150536 162.42216655 6.82829033 152.3527832 10.14526367 Z M82.3527832 18.14526367 C78.31655011 22.99109003 76.97853643 27.52916247 77.0793457 33.73901367 C77.71984372 39.37539619 80.43455189 43.58552694 84.5402832 47.39526367 C94.15289617 54.99834332 104.52619907 55.79693259 116.3527832 55.14526367 C125.00343041 53.76583614 133.04427883 49.60840991 138.3527832 42.52026367 C141.29751213 37.55103362 142.08754819 32.91841713 141.3527832 27.14526367 C139.14406026 20.04009469 134.53510002 15.35652239 128.0402832 11.92260742 C112.86695744 4.95984774 94.76806348 6.2863285 82.3527832 18.14526367 Z M35.3527832 10.14526367 C35.3527832 10.47526367 35.3527832 10.80526367 35.3527832 11.14526367 C37.0027832 11.14526367 38.6527832 11.14526367 40.3527832 11.14526367 C40.3527832 10.81526367 40.3527832 10.48526367 40.3527832 10.14526367 C38.7027832 10.14526367 37.0527832 10.14526367 35.3527832 10.14526367 Z M178.3527832 10.14526367 C178.3527832 10.47526367 178.3527832 10.80526367 178.3527832 11.14526367 C180.0027832 11.14526367 181.6527832 11.14526367 183.3527832 11.14526367 C183.3527832 10.81526367 183.3527832 10.48526367 183.3527832 10.14526367 C181.7027832 10.14526367 180.0527832 10.14526367 178.3527832 10.14526367 Z M-11.6472168 12.14526367 C-7.77614399 16.68956653 -2.86401472 20.74814743 3.26760864 21.32559204 C8.66926317 21.41755281 14.03867619 20.92287556 19.4152832 20.45776367 C21.06027804 20.33606225 22.70546273 20.21689887 24.35083008 20.1003418 C28.35427187 19.81123509 32.35357155 19.48778065 36.3527832 19.14526367 C36.3527832 18.81526367 36.3527832 18.48526367 36.3527832 18.14526367 C30.32109126 17.28636719 24.28878192 16.43199685 18.25585938 15.58178711 C16.20425162 15.29201109 14.15281706 15.001006 12.1015625 14.70874023 C9.15059531 14.28850078 6.19903044 13.8727068 3.24731445 13.45776367 C1.87516533 13.26089966 1.87516533 13.26089966 0.47529602 13.06005859 C-3.593484 12.49207268 -7.52644616 11.96561155 -11.6472168 12.14526367 Z M8.3527832 12.14526367 C8.3527832 12.47526367 8.3527832 12.80526367 8.3527832 13.14526367 C36.2209579 17.60242333 36.2209579 17.60242333 64.3527832 18.14526367 C64.6827832 17.48526367 65.0127832 16.82526367 65.3527832 16.14526367 C56.53053668 13.80021272 48.21878717 12.64221252 39.1027832 12.45776367 C37.93706787 12.42432861 36.77135254 12.39089355 35.5703125 12.35644531 C26.49808701 12.11514605 17.42739742 12.03007111 8.3527832 12.14526367 Z M179.6027832 12.45776367 C178.49185303 12.4802417 177.38092285 12.50271973 176.23632812 12.52587891 C168.31292998 12.78396433 161.00914292 14.11011836 153.3527832 16.14526367 C153.6827832 16.80526367 154.0127832 17.46526367 154.3527832 18.14526367 C173.19118341 19.30494631 191.7780336 15.89990036 210.3527832 13.14526367 C210.3527832 12.81526367 210.3527832 12.48526367 210.3527832 12.14526367 C200.09886908 12.01510115 189.85306012 12.16376513 179.6027832 12.45776367 Z M215.45825195 13.45776367 C214.03721916 13.65752808 214.03721916 13.65752808 212.58747864 13.86132812 C209.57128218 14.28608801 206.5557861 14.71561038 203.5402832 15.14526367 C201.49149949 15.43464082 199.44267183 15.72370691 197.39379883 16.01245117 C192.3796103 16.71978452 187.36604443 17.43138894 182.3527832 18.14526367 C182.3527832 18.47526367 182.3527832 18.80526367 182.3527832 19.14526367 C187.2565312 19.63425454 192.16079566 20.06270473 197.07446289 20.43920898 C198.73990329 20.57494013 200.40415794 20.72625874 202.06665039 20.89428711 C212.87733942 21.97405509 219.52838745 21.90755337 228.38696289 15.01049805 C229.03568359 14.3949707 229.6844043 13.77944336 230.3527832 13.14526367 C230.3527832 12.81526367 230.3527832 12.48526367 230.3527832 12.14526367 C225.31301215 11.92554613 220.43122296 12.74428507 215.45825195 13.45776367 Z M66.3527832 14.14526367 C66.3527832 14.47526367 66.3527832 14.80526367 66.3527832 15.14526367 C71.3027832 16.13526367 71.3027832 16.13526367 76.3527832 17.14526367 C76.6827832 16.15526367 77.0127832 15.16526367 77.3527832 14.14526367 C73.7227832 14.14526367 70.0927832 14.14526367 66.3527832 14.14526367 Z M141.3527832 14.14526367 C141.6827832 15.13526367 142.0127832 16.12526367 142.3527832 17.14526367 C145.6527832 16.48526367 148.9527832 15.82526367 152.3527832 15.14526367 C152.3527832 14.81526367 152.3527832 14.48526367 152.3527832 14.14526367 C148.7227832 14.14526367 145.0927832 14.14526367 141.3527832 14.14526367 Z M66.3527832 21.14526367 C68.9927832 21.14526367 71.6327832 21.14526367 74.3527832 21.14526367 C74.3527832 20.48526367 74.3527832 19.82526367 74.3527832 19.14526367 C70.58590456 19.14526367 69.44088016 19.38063684 66.3527832 21.14526367 Z M144.3527832 19.14526367 C144.3527832 19.80526367 144.3527832 20.46526367 144.3527832 21.14526367 C146.9927832 21.14526367 149.6327832 21.14526367 152.3527832 21.14526367 C149.26468625 19.38063684 148.11966185 19.14526367 144.3527832 19.14526367 Z M22.3527832 22.14526367 C22.3527832 22.47526367 22.3527832 22.80526367 22.3527832 23.14526367 C44.36745481 26.63489823 44.36745481 26.63489823 65.3527832 22.14526367 C51.01866777 19.89859532 36.68192491 19.43684755 22.3527832 22.14526367 Z M153.3527832 22.14526367 C165.01329812 28.90337683 183.66292507 24.36641963 196.3527832 23.14526367 C196.3527832 22.81526367 196.3527832 22.48526367 196.3527832 22.14526367 C182.24409723 19.3986476 167.44166984 19.48988161 153.3527832 22.14526367 Z M5.3527832 23.14526367 C12.08557164 28.82717949 12.08557164 28.82717949 20.3762207 30.03588867 C21.82937621 29.84108159 23.28007426 29.62710318 24.7277832 29.39526367 C25.44450195 29.2947168 26.1612207 29.19416992 26.8996582 29.09057617 C28.33266031 28.88881775 29.76467775 28.67992632 31.19555664 28.46362305 C34.57424843 27.96500217 37.96269538 27.55850237 41.3527832 27.14526367 C41.3527832 26.81526367 41.3527832 26.48526367 41.3527832 26.14526367 C23.5327832 24.66026367 23.5327832 24.66026367 5.3527832 23.14526367 Z M146.3527832 24.14526367 C146.3527832 25.13526367 146.3527832 26.12526367 146.3527832 27.14526367 C149.6527832 26.81526367 152.9527832 26.48526367 156.3527832 26.14526367 C156.3527832 25.81526367 156.3527832 25.48526367 156.3527832 25.14526367 C153.0527832 24.81526367 149.7527832 24.48526367 146.3527832 24.14526367 Z M202.84106445 23.70385742 C201.74872749 23.80586205 201.74872749 23.80586205 200.63432312 23.90992737 C198.31070408 24.12828421 195.98803749 24.35540984 193.6652832 24.58276367 C192.08916617 24.73243088 190.51299473 24.88152633 188.93676758 25.0300293 C185.07477705 25.39514494 181.21361757 25.76812657 177.3527832 26.14526367 C177.3527832 26.47526367 177.3527832 26.80526367 177.3527832 27.14526367 C180.72554517 27.68132882 184.10120065 28.19636327 187.4777832 28.70776367 C188.90477539 28.93496094 188.90477539 28.93496094 190.3605957 29.16674805 C197.56619223 30.24258364 202.78582183 30.38937721 209.2277832 26.58276367 C210.00895508 26.12772461 210.79012695 25.67268555 211.5949707 25.20385742 C212.17504883 24.85452148 212.75512695 24.50518555 213.3527832 24.14526367 C209.67761487 22.92020756 206.61720854 23.32545428 202.84106445 23.70385742 Z M62.3527832 25.14526367 C62.3527832 25.47526367 62.3527832 25.80526367 62.3527832 26.14526367 C65.6527832 26.47526367 68.9527832 26.80526367 72.3527832 27.14526367 C72.3527832 26.15526367 72.3527832 25.16526367 72.3527832 24.14526367 C68.94179153 24.14526367 65.72190007 24.63671773 62.3527832 25.14526367 Z M29.3527832 30.14526367 C29.3527832 30.47526367 29.3527832 30.80526367 29.3527832 31.14526367 C33.33630488 31.19513442 37.3197027 31.23120332 41.3034668 31.25512695 C43.31606439 31.26999246 45.32857508 31.29542067 47.34106445 31.32104492 C54.03606601 31.35468815 59.96308602 31.21539516 66.3527832 29.14526367 C66.3527832 28.81526367 66.3527832 28.48526367 66.3527832 28.14526367 C53.55730191 26.76958369 41.9911241 27.83193757 29.3527832 30.14526367 Z M156.9152832 27.64526367 C155.6178418 27.78448242 155.6178418 27.78448242 154.29418945 27.92651367 C153.33319336 28.03479492 153.33319336 28.03479492 152.3527832 28.14526367 C157.38144622 30.83919029 161.37779758 31.26796098 167.0871582 31.24291992 C169.03041992 31.23808594 169.03041992 31.23808594 171.01293945 31.2331543 C172.37622137 31.22479965 173.73950262 31.21633471 175.1027832 31.20776367 C176.48168785 31.20274535 177.86059424 31.19818303 179.23950195 31.1940918 C182.61063979 31.1823046 185.98168948 31.16585002 189.3527832 31.14526367 C189.3527832 30.81526367 189.3527832 30.48526367 189.3527832 30.14526367 C186.16661021 29.63655834 182.97866845 29.13989786 179.7902832 28.64526367 C178.8950293 28.50217773 177.99977539 28.3590918 177.07739258 28.21166992 C170.24183256 27.1600453 163.80914157 26.88977234 156.9152832 27.64526367 Z M63.3527832 32.14526367 C65.9927832 32.14526367 68.6327832 32.14526367 71.3527832 32.14526367 C71.3527832 31.48526367 71.3527832 30.82526367 71.3527832 30.14526367 C67.58590456 30.14526367 66.44088016 30.38063684 63.3527832 32.14526367 Z M147.3527832 30.14526367 C147.3527832 30.80526367 147.3527832 31.46526367 147.3527832 32.14526367 C149.9927832 32.14526367 152.6327832 32.14526367 155.3527832 32.14526367 C152.26468625 30.38063684 151.11966185 30.14526367 147.3527832 30.14526367 Z M23.3527832 33.14526367 C28.51080899 37.01378301 29.77425978 37.28198085 35.8215332 36.53588867 C39.71183094 35.93553408 43.52968887 35.07618262 47.3527832 34.14526367 C47.3527832 33.81526367 47.3527832 33.48526367 47.3527832 33.14526367 C39.4327832 33.14526367 31.5127832 33.14526367 23.3527832 33.14526367 Z M171.3527832 33.14526367 C171.3527832 33.47526367 171.3527832 33.80526367 171.3527832 34.14526367 C173.22534738 34.65431024 175.10097661 35.15208822 176.9777832 35.64526367 C178.02192383 35.92370117 179.06606445 36.20213867 180.1418457 36.48901367 C186.26446455 37.74035183 189.91142392 37.25461183 195.3527832 34.14526367 C195.3527832 33.81526367 195.3527832 33.48526367 195.3527832 33.14526367 C187.4327832 33.14526367 179.5127832 33.14526367 171.3527832 33.14526367 Z M43.3527832 36.14526367 C43.3527832 36.47526367 43.3527832 36.80526367 43.3527832 37.14526367 C46.24886913 37.19939612 49.14393515 37.23900008 52.0402832 37.27026367 C52.8569043 37.28702148 53.67352539 37.3037793 54.51489258 37.32104492 C58.92371249 37.35674387 62.34009896 37.22107181 66.3527832 35.14526367 C66.3527832 34.81526367 66.3527832 34.48526367 66.3527832 34.14526367 C54.7058305 33.81141872 54.7058305 33.81141872 43.3527832 36.14526367 Z M152.3527832 34.14526367 C154.59979182 36.39227229 156.17141919 37.07796804 159.34570312 37.25878906 C160.45328979 37.25093384 160.45328979 37.25093384 161.58325195 37.24291992 C162.38569336 37.23969727 163.18813477 37.23647461 164.01489258 37.2331543 C164.84827148 37.22477539 165.68165039 37.21639648 166.5402832 37.20776367 C167.80775391 37.20099609 167.80775391 37.20099609 169.10083008 37.1940918 C171.18484475 37.1823177 173.26882297 37.16438257 175.3527832 37.14526367 C170.03956958 34.29889923 165.5837582 34.00927343 159.6027832 34.08276367 C158.90540039 34.08727539 158.20801758 34.09178711 157.48950195 34.09643555 C155.77722518 34.10816347 154.06499287 34.12609715 152.3527832 34.14526367 Z M147.3527832 35.14526367 C147.0227832 35.80526367 146.6927832 36.46526367 146.3527832 37.14526367 C148.0027832 37.14526367 149.6527832 37.14526367 151.3527832 37.14526367 C150.0327832 36.48526367 148.7127832 35.82526367 147.3527832 35.14526367 Z M70.3527832 35.14526367 C69.3627832 35.80526367 68.3727832 36.46526367 67.3527832 37.14526367 C69.0027832 37.14526367 70.6527832 37.14526367 72.3527832 37.14526367 C71.6927832 36.48526367 71.0327832 35.82526367 70.3527832 35.14526367 Z M36.3527832 39.14526367 C40.59020582 42.32333063 42.18767208 42.97017516 47.3527832 43.14526367 C49.87999008 42.37333472 51.98262357 41.35452879 54.3527832 40.14526367 C54.3527832 39.81526367 54.3527832 39.48526367 54.3527832 39.14526367 C48.4127832 39.14526367 42.4727832 39.14526367 36.3527832 39.14526367 Z M52.3527832 42.14526367 C55.52013255 43.11531034 58.12315241 43.19319406 61.4152832 42.89526367 C62.70112305 42.7947168 62.70112305 42.7947168 64.01293945 42.69213867 C66.67530967 42.06988186 67.64351877 41.23000587 69.3527832 39.14526367 C62.89385606 38.74158073 58.29169742 39.55373747 52.3527832 42.14526367 Z M149.3527832 39.14526367 C150.4111687 40.75252563 150.4111687 40.75252563 152.3527832 42.14526367 C155.77517161 42.72744699 155.77517161 42.72744699 159.5402832 42.83276367 C160.81258789 42.89850586 162.08489258 42.96424805 163.39575195 43.03198242 C164.37157227 43.06936523 165.34739258 43.10674805 166.3527832 43.14526367 C160.56407222 39.28612301 156.15605897 38.87846854 149.3527832 39.14526367 Z M164.3527832 39.14526367 C166.68937483 41.4818553 168.17939974 42.22850845 171.3527832 43.14526367 C176.45727854 42.87660602 178.15078316 42.29676371 182.3527832 39.14526367 C176.4127832 39.14526367 170.4727832 39.14526367 164.3527832 39.14526367 Z M145.3527832 40.14526367 C145.3527832 40.80526367 145.3527832 41.46526367 145.3527832 42.14526367 C146.3427832 41.81526367 147.3327832 41.48526367 148.3527832 41.14526367 C147.3627832 40.81526367 146.3727832 40.48526367 145.3527832 40.14526367 Z M61.3527832 47.14526367 C66.36813373 46.81566152 66.36813373 46.81566152 70.3527832 44.14526367 C66.25687687 43.80393814 64.42471295 44.41465945 61.3527832 47.14526367 Z M147.3527832 44.14526367 C148.40908583 45.79096526 148.40908583 45.79096526 150.3527832 47.14526367 C153.97814296 47.39562137 153.97814296 47.39562137 157.3527832 47.14526367 C154.80209475 44.79078202 153.64260963 44.16198443 150.1027832 43.95776367 C148.7415332 44.05057617 148.7415332 44.05057617 147.3527832 44.14526367 Z M50.3527832 45.14526367 C53.2212245 47.24758711 53.2212245 47.24758711 56.3527832 48.14526367 C57.3427832 47.15526367 58.3327832 46.16526367 59.3527832 45.14526367 C56.3827832 45.14526367 53.4127832 45.14526367 50.3527832 45.14526367 Z M74.3527832 44.14526367 C73.3627832 45.13526367 72.3727832 46.12526367 71.3527832 47.14526367 C72.6727832 46.81526367 73.9927832 46.48526367 75.3527832 46.14526367 C75.0227832 45.48526367 74.6927832 44.82526367 74.3527832 44.14526367 Z M159.3527832 45.14526367 C161.02766849 46.88174315 161.02766849 46.88174315 163.3527832 48.14526367 C166.08676455 47.4356913 166.08676455 47.4356913 168.3527832 46.14526367 C168.3527832 45.81526367 168.3527832 45.48526367 168.3527832 45.14526367 C165.3827832 45.14526367 162.4127832 45.14526367 159.3527832 45.14526367 Z M76.3527832 49.14526367 C75.6927832 49.80526367 75.0327832 50.46526367 74.3527832 51.14526367 C83.26632025 60.21636324 93.48672025 65.16312496 106.20703125 65.43774414 C119.28107442 65.53667111 129.97482558 63.72408277 140.3527832 55.14526367 C142.84014234 52.4827139 142.84014234 52.4827139 144.3527832 50.14526367 C142.25783017 49.08482716 142.25783017 49.08482716 139.3527832 49.14526367 C137.30364051 50.45835068 135.49198453 51.97416486 133.60668945 53.51245117 C123.54585822 60.80088697 110.34612896 61.56400003 98.4309082 59.68432617 C91.50155987 57.80854716 84.45382928 54.24630975 79.3527832 49.14526367 C78.3627832 49.14526367 77.3727832 49.14526367 76.3527832 49.14526367 Z " fill="#FFFFFF" transform="translate(37.647216796875,12.854736328125)"/>
<path d="M0 0 C2.61865091 2.01434686 3.73112889 3.31885986 4.9375 6.375 C5.0221688 9.93108969 3.83947665 12.00233435 2 15 C1.01 15.495 1.01 15.495 0 16 C0.804375 16.70125 1.60875 17.4025 2.4375 18.125 C5.30828361 21.34587918 6 22.72704506 6 27 C4.70009665 31.06219797 3.16285543 33.16777214 -0.4375 35.3125 C-9.08024031 39.40642962 -19.13722226 39.35681059 -28.125 36.1875 C-31.49678678 34.85005874 -34.17337821 33.27302075 -37 31 C-36.67402832 30.4337793 -36.34805664 29.86755859 -36.01220703 29.28417969 C-34.90272686 26.78049023 -34.76792675 25.17342082 -34.8046875 22.453125 C-34.81113281 21.60878906 -34.81757812 20.76445313 -34.82421875 19.89453125 C-34.84097656 19.02183594 -34.85773438 18.14914063 -34.875 17.25 C-34.88402344 16.36183594 -34.89304687 15.47367188 -34.90234375 14.55859375 C-34.92585423 12.37211942 -34.95871501 10.18619906 -35 8 C-35.66 7.67 -36.32 7.34 -37 7 C-37 6.01 -37 5.02 -37 4 C-27.20350991 -4.5751095 -11.39726569 -5.90969332 0 0 Z M-21.7578125 2.265625 C-23.64112342 4.89515346 -23.48442347 6.97894534 -23.33984375 10.125 C-23.11624485 12.15591347 -23.11624485 12.15591347 -21.5 14 C-17.74404458 15.50238217 -15.04953637 15.38567013 -11 15 C-8.22422328 13.38825868 -8.04700481 12.16994047 -7.1875 9.0625 C-6.99244111 5.87653809 -7.18725516 4.57600582 -9 2 C-11.32686453 0.83656773 -12.84721413 0.80104012 -15.4375 0.75 C-16.61119141 0.71132813 -16.61119141 0.71132813 -17.80859375 0.671875 C-20.05732148 0.83767123 -20.05732148 0.83767123 -21.7578125 2.265625 Z M-21.7890625 20.234375 C-24.04452041 23.52297815 -23.61058485 27.1873946 -23 31 C-21.69596291 33.29162912 -21.69596291 33.29162912 -19 34 C-13.3249559 34.79504792 -13.3249559 34.79504792 -8.2734375 32.69140625 C-6.21530124 29.95774674 -6.17637994 27.35121893 -6 24 C-6.95642882 21.20428498 -7.35298978 20.32350511 -10 19 C-11.64142541 18.85359499 -13.2898141 18.77903411 -14.9375 18.75 C-15.81277344 18.72421875 -16.68804687 18.6984375 -17.58984375 18.671875 C-20.02526909 18.8186425 -20.02526909 18.8186425 -21.7890625 20.234375 Z " fill="#FFFFFF" transform="translate(162,27)"/>
<path d="M0 0 C3.0525 -0.0825 6.105 -0.165 9.25 -0.25 C10.20551758 -0.28641602 11.16103516 -0.32283203 12.14550781 -0.36035156 C18.3593837 -0.44187088 18.3593837 -0.44187088 21.59375 1.7890625 C23.5826651 4.91607902 23.26880139 7.37118119 23 11 C22.81509993 13.32357511 22.81509993 13.32357511 25 16 C25.58808032 19.86452782 25.3863925 21.45087372 23.1171875 24.67578125 C18.66615838 27.99453103 15.07042427 27.55786928 9.6875 27.3125 C6.490625 27.209375 3.29375 27.10625 0 27 C0 18.09 0 9.18 0 0 Z M6 5 C6 6.65 6 8.3 6 10 C9.63 10 13.26 10 17 10 C17 8.68 17 7.36 17 6 C14.59454362 4.79727181 13.05003047 4.89928528 10.375 4.9375 C9.55773437 4.94652344 8.74046875 4.95554687 7.8984375 4.96484375 C7.27195312 4.97644531 6.64546875 4.98804687 6 5 Z M6 16 C6 17.65 6 19.3 6 21 C9.96 21 13.92 21 18 21 C18.33 19.68 18.66 18.36 19 17 C17.91447634 15.68737429 17.91447634 15.68737429 15.27734375 15.90234375 C14.17519531 15.91394531 13.07304688 15.92554687 11.9375 15.9375 C10.83277344 15.94652344 9.72804688 15.95554687 8.58984375 15.96484375 C7.73519531 15.97644531 6.88054688 15.98804687 6 16 Z " fill="#FFFFFF" transform="translate(39,105)"/>
<path d="M0 0 C6 0 6 0 8.4140625 2.23046875 C9.14367187 3.20628906 9.87328125 4.18210937 10.625 5.1875 C11.72714844 6.63189453 11.72714844 6.63189453 12.8515625 8.10546875 C13.56054688 9.06066406 14.26953125 10.01585938 15 11 C16.32 12.65 17.64 14.3 19 16 C19.33 10.72 19.66 5.44 20 0 C21.98 0 23.96 0 26 0 C26 8.91 26 17.82 26 27 C20 27 20 27 18.12548828 25.62304688 C17.61228027 24.99462891 17.09907227 24.36621094 16.5703125 23.71875 C16.003125 23.04199219 15.4359375 22.36523438 14.8515625 21.66796875 C14.28179687 20.95253906 13.71203125 20.23710938 13.125 19.5 C12.53203125 18.78457031 11.9390625 18.06914063 11.328125 17.33203125 C9.86957905 15.56766115 8.43263184 13.78547589 7 12 C6.67 16.95 6.34 21.9 6 27 C4.02 27 2.04 27 0 27 C0 18.09 0 9.18 0 0 Z " fill="#FFFFFF" transform="translate(102,105)"/>
<path d="M0 0 C7.92 0 15.84 0 24 0 C24 1.65 24 3.3 24 5 C18.06 5 12.12 5 6 5 C6 6.65 6 8.3 6 10 C9.96 10 13.92 10 18 10 C18 11.98 18 13.96 18 16 C14.04 16 10.08 16 6 16 C6 17.65 6 19.3 6 21 C11.94 21 17.88 21 24 21 C24 22.98 24 24.96 24 27 C16.08 27 8.16 27 0 27 C0 18.09 0 9.18 0 0 Z " fill="#FFFFFF" transform="translate(71,105)"/>
<path d="M0 0 C7.59 0 15.18 0 23 0 C23 1.65 23 3.3 23 5 C17.39 5 11.78 5 6 5 C6 6.65 6 8.3 6 10 C9.96 10 13.92 10 18 10 C18 11.98 18 13.96 18 16 C14.04 16 10.08 16 6 16 C6 17.65 6 19.3 6 21 C7.82337891 20.98259766 7.82337891 20.98259766 9.68359375 20.96484375 C11.26822764 20.95546722 12.85286318 20.94636687 14.4375 20.9375 C15.23994141 20.92912109 16.04238281 20.92074219 16.86914062 20.91210938 C18.91295221 20.9034857 20.95683902 20.9477185 23 21 C24 22 24 22 24 27 C16.08 27 8.16 27 0 27 C0 18.09 0 9.18 0 0 Z " fill="#FFFFFF" transform="translate(195,105)"/>
<path d="M0 0 C3.0625 -0.5625 3.0625 -0.5625 7 0 C9.14022476 2.19587061 10.80629247 4.49079524 12.51953125 7.03125 C13.00808594 7.6809375 13.49664062 8.330625 14 9 C14.66 9 15.32 9 16 9 C17.10477278 7.53085625 18.15973448 6.02400928 19.1875 4.5 C21.046875 2.00390625 21.046875 2.00390625 23 0 C26.9375 -0.5625 26.9375 -0.5625 30 0 C28.4443737 3.67229815 26.1326215 6.09290265 23.4375 9 C18.54513536 14.80968302 17.67428007 19.5344993 18 27 C16.02 27 14.04 27 12 27 C12.05542969 26.28457031 12.11085937 25.56914062 12.16796875 24.83203125 C12.22864382 15.451666 8.51185478 11.09781708 2.37109375 4.6171875 C0 2 0 2 0 0 Z " fill="#FFFFFF" transform="translate(225,105)"/>
<path d="M0 0 C1.98 0 3.96 0 6 0 C6 6.93 6 13.86 6 21 C11.22063275 20.96042843 11.22063275 20.96042843 16.44116211 20.90991211 C18.29433759 20.90276055 20.14749308 20.9497148 22 21 C23 22 23 22 23 27 C15.41 27 7.82 27 0 27 C0 18.09 0 9.18 0 0 Z " fill="#FFFFFF" transform="translate(166,105)"/>
<path d="M0 0 C8.58 0 17.16 0 26 0 C26 1.65 26 3.3 26 5 C22.7 5 19.4 5 16 5 C16 12.26 16 19.52 16 27 C14.02 27 12.04 27 10 27 C10 19.74 10 12.48 10 5 C6.7 5 3.4 5 0 5 C0 3.35 0 1.7 0 0 Z " fill="#FFFFFF" transform="translate(134,105)"/>
</svg>
