<?xml version="1.0" encoding="UTF-8"?><svg id="Layer_1" xmlns="http://www.w3.org/2000/svg" viewBox="0 0 71.52 47.96"><defs><style>.cls-1,.cls-2{fill:#dcddde;}.cls-1,.cls-3,.cls-4{fill-rule:evenodd;}.cls-5{fill:#231f20;}.cls-3{fill:#7e8083;}.cls-4{fill:#eeb111;}.cls-6{fill:#c41230;}</style></defs><g id="New_Symbol"><path class="cls-3" d="M35.72,47.96h-.02c-.21-.02-.41-.15-.51-.35-1.07-2.12-2.78-5.68-4.17-8.54-.83-1.73-1.55-3.22-1.85-3.82-.14-.29-.35-.52-.62-.68l-13.88-8.6c-.4-.25-.75-.56-1.07-.91-.47-.53-.85-1.2-1.07-1.87l-.3-.94c-.15-.45-.28-.86-.38-1.17l-5.71-3.37c-.41-.26-.76-.56-1.07-.92-.47-.53-.85-1.19-1.07-1.88C3.16,12.26,1.22,5.5.02.79c-.01-.05-.02-.11-.02-.16,0-.36.27-.63.63-.63.11,0,.21.02.3.07,1.03.54,6.52,3.43,12.72,7.36.29.19.37.34.45.53l.02.04c.17.4,1.03,2.46,1.5,3.3.28.5.68.9,1.19,1.21,3.48,2.08,6.95,4.28,11.75,7.33,0,0,.17.11.37.25.28.2.5.38.66.54.56.56,1.01,1.44,1.18,1.79l4.98,10.32,4.97-10.32c.17-.35.62-1.22,1.18-1.79.17-.16.38-.34.66-.54.2-.14.36-.25.37-.25,4.8-3.05,8.27-5.25,11.75-7.33.51-.31.91-.72,1.2-1.21.47-.84,1.34-2.9,1.5-3.3v-.03c.1-.2.18-.34.45-.53,6.21-3.93,11.7-6.83,12.74-7.37.09-.04.19-.07.29-.07.36,0,.63.27.63.63,0,.05,0,.11-.02.17-1.2,4.71-3.13,11.46-3.98,14.13-.22.68-.6,1.35-1.08,1.88-.31.35-.67.66-1.07.91l-5.72,3.38c-.1.3-.68,2.1-.68,2.1-.22.68-.6,1.34-1.07,1.87-.32.35-.67.66-1.07.91l-13.88,8.6c-.26.16-.47.39-.62.68-.3.6-1.02,2.09-1.85,3.82-1.38,2.86-3.1,6.42-4.17,8.54-.1.21-.32.35-.56.35h-.04Z"/><path class="cls-1" d="M35.75,47.53c-.07,0-.14-.04-.17-.11-1.73-3.44-5.24-10.8-6.02-12.36-.17-.35-.44-.65-.77-.85l-13.88-8.6c-.34-.22-.68-.49-.97-.83-.45-.5-.79-1.12-.99-1.72-.28-.89-.57-1.76-.72-2.26l-5.85-3.46c-.35-.22-.68-.49-.97-.83-.45-.5-.79-1.12-.99-1.72C3.56,12.11,1.63,5.35.44.69c0-.02,0-.03,0-.05,0-.14.09-.2.2-.2.04,0,.07.01.09.02,2.42,1.27,7.49,4.05,12.7,7.34.2.14.23.22.3.35,0,0,.99,2.42,1.53,3.36.45.79,1.07,1.2,1.35,1.37,3.46,2.07,6.94,4.28,11.74,7.32,0,0,.16.1.35.24.19.13.43.32.61.49.55.55.99,1.45,1.1,1.66l5.35,11.08h.03l5.35-11.08c.1-.21.54-1.11,1.1-1.66.17-.17.41-.36.61-.49.2-.14.35-.24.35-.24,4.81-3.05,8.28-5.25,11.74-7.32.29-.17.91-.58,1.35-1.37.54-.95,1.53-3.36,1.53-3.37.06-.13.09-.21.29-.35,5.21-3.29,10.28-6.08,12.69-7.34.03-.01.07-.02.1-.02.11,0,.2.07.2.2,0,.02,0,.04,0,.05-1.2,4.66-3.12,11.42-3.98,14.11-.2.6-.53,1.22-.99,1.72-.29.33-.62.61-.97.83l-5.85,3.46c-.16.49-.44,1.37-.73,2.26-.2.6-.54,1.22-.99,1.72-.29.33-.62.61-.97.83l-13.88,8.6c-.33.2-.6.5-.78.85-.78,1.56-4.29,8.92-6.02,12.36-.03.06-.1.11-.17.11h0Z"/><path class="cls-5" d="M27.62,21.43c-.07-.14-.13-.26-.19-.37-.06-.11-.11-.21-.18-.29-.12-.18-.26-.32-.5-.47-9.39-5.99-15.13-9.26-16.98-10.3l3.66,11.27c.12.38.31.74.58,1.05.18.21.44.42.66.56l16.14,10.07s.19.13.28.24c.08.08.16.24.16.24l3.96,7.81v-4.44s-7.6-15.37-7.6-15.37ZM21.36,17.31l1.69,3.92-5.78-3.39-1.51-3.96,5.6,3.43ZM12.84,18.47l-1.28-3.9,5.71,3.3,1.51,3.98-5.93-3.38ZM20.29,25.94l-1.51-4.07,6.09,3.58,1.96,4.55-6.53-4.06ZM24.88,25.43l-1.8-4.18,5.79,3.38,2.23,4.53-6.22-3.73Z"/><path class="cls-6" d="M59.41,8.07h0s3.53,0,3.53,0c.11-.01.18.02.25.15.04.09.03.19.03.23,0,.04-.01.08-.02.11h0s-3.07,9.46-3.07,9.46l5.26-3.09s.35-.22.52-.42c.29-.33.47-1.01.47-1.01.65-2.08,2.11-6.84,3.32-11.44,0,0-2.37,1.17-10.29,6Z"/><path class="cls-5" d="M8.58,8.08h3.53s0,0,0,0C4.2,3.24,1.83,2.07,1.83,2.07c1.21,4.6,2.67,9.36,3.32,11.44,0,0,.18.68.47,1.01.18.2.53.42.53.42l5.26,3.09-3.07-9.46h0s-.01-.08-.02-.12c0-.04-.01-.14.03-.23.06-.12.14-.16.25-.15ZM9.43,13.09l-5.01-2.94c-.28-.98-.73-2.41-1.1-3.8.78.42,2.41,1.35,4.86,2.82l1.25,3.92ZM8.11,7.81l-.75-2.24c1.15.65,2,1.18,3.74,2.24h-2.99Z"/><path class="cls-6" d="M44.77,20.3c-.23.15-.38.29-.51.47-.06.08-.12.18-.17.29-.06.11-.12.23-.19.37l-7.62,15.37.02,4.44,3.96-7.81s.09-.16.16-.24c.1-.11.29-.24.29-.24l16.14-10.07c.23-.14.48-.35.66-.56.27-.31.46-.66.58-1.05l3.66-11.27c-1.85,1.04-7.59,4.32-16.98,10.3Z"/><path class="cls-2" d="M21.36,17.31l1.69,3.92-5.78-3.38-1.51-3.97,5.6,3.43ZM12.84,18.46l-1.28-3.9,5.71,3.3,1.5,3.99-5.92-3.38ZM20.28,25.94l-1.51-4.07,6.09,3.58,1.96,4.55-6.53-4.06ZM24.88,25.43l-1.8-4.18,5.79,3.38,2.23,4.53-6.22-3.73Z"/><path class="cls-2" d="M11.1,7.81h-2.99l-.74-2.24c1.15.66,2,1.19,3.74,2.24ZM4.42,10.15c-.28-.97-.73-2.4-1.1-3.79.78.42,2.42,1.35,4.86,2.82l1.25,3.92-5.01-2.95Z"/><polygon class="cls-1" points="62.37 14.38 65.51 12.62 65.75 11.82 62.61 13.58 62.37 14.38"/><path class="cls-1" d="M65.39,10.41s0,0,0,0c.03,0,.05.01.06.04h0c0,.06,0,.19,0,.28,0,.03,0,.06-.02.08t-.06.04c-.12.07-.35.2-.48.36l-.23.5s-.16.06-.18.06c-.02,0-.04,0-.03-.01v-.32s-.22.01-.31.04h0s-.02.01-.03.01c-.03,0-.05-.02-.05-.05h0c.03-.15.08-.29.11-.36,0-.03.02-.04.02-.05.02-.01.03-.02.05-.03.35-.17.47-.61.47-.61.22-1,.04-1.07.04-1.07-.17-.1-.85.58-1.14.86,0,0,0,0,0,0-.01,0-.02,0-.04,0-.03,0-.05-.02-.05-.05,0,0,0-.01,0-.02h0c.11-.38.41-1.39,1.06-1.82,0,0,.37-.22.65.2-.01-.52.16-1.05.16-1.05,0,0,.29-.92.8-1.4,0-.01.02-.02.04-.02.02,0,.03,0,.04.03.25.38.11.84.11.84,0,0-.19.6-.56,1.27.72-.93,1.04-.87,1.04-.87.44-.01.31.73.28,1.01,0,.03-.02.05-.05.05h0c-.17-.04-.63-.17-1.04.25,0,0-.62.61-.86,1.55,0,0-.04.29.19.25h.01Z"/><path class="cls-2" d="M54.89,20.24l-2.83,1.73-.14,1.1-3.89,2.46.15-1.1-4.37,2.77,1.9-3.79,2.83-1.77.14-1.06,3.89-2.46-.14,1.06,4.36-2.72-1.9,3.79Z"/><polygon class="cls-4" points="46.75 23.18 48.96 21.83 49.09 20.83 52 19.01 51.88 20.01 55.09 18.02 53.89 20.42 51.64 21.78 51.5 22.81 48.58 24.64 48.72 23.61 45.53 25.6 46.75 23.18"/></g></svg>