<svg xmlns="http://www.w3.org/2000/svg" viewBox="0 0 168 70">
    <defs>
        <style>.ineos-logo-svg-1{fill:#fff;}</style>
    </defs>
    <path class="ineos-logo-svg-1"
          d="m57.07135,2.48604h27.14331v7.75726h-18.36641v7.00587h17.26948v7.64852h-17.26948v7.6482h19.29346l.00456,7.68674h-28.07315l-.00176-37.7466Zm107.07545,3.04945c-3.3733-2.81777-7.70418-3.92972-12.20497-3.92972-7.81966,0-15.18825,4.19468-15.18825,12.21133,0,12.53333,18.67531,8.81716,18.67531,15.71954,0,2.65564-3.20623,3.9317-6.07232,3.9317-2.92505,0-5.85186-1.33077-7.65397-3.56094l-6.24466,6.47988c3.76995,3.293,8.27249,4.72563,13.38966,4.72563,8.21525,0,15.35639-3.98279,15.35639-12.37216,0-13.17168-18.33796-8.76211-18.33796-15.61243,0-2.81513,3.43157-3.87634,5.90662-3.87634,2.13877,0,4.95079.79589,6.35662,2.49547l6.01751-6.21195Zm-71.06748,16.73887c0,8.94306,4.24875,15.6711,10.94551,18.39759-8.93837-2.49315-14.35953-9.85956-14.35953-19.29894,0-9.46507,5.44923-16.84797,14.43079-19.32266-7.07972,2.94103-11.01676,10.50584-11.01676,20.22401M118.65463,2.26521c8.54801,2.66552,13.70837,9.90011,13.70837,19.10779,0,9.3092-5.2776,16.60476-14.00078,19.19348,6.89472-3.02375,10.50776-10.54671,10.50776-19.95049,0-8.87383-3.91071-15.49675-10.21536-18.35078m5.02239,22.27391c-.56304,9.87177-3.89318,16.49105-12.59635,16.49105-8.98225,0-12.38187-6.55799-12.841-16.91025,1.24717,5.46253,6.23763,8.89591,12.77326,8.89591,6.37068,0,11.2607-3.25905,12.6641-8.47672M111.08066,1.68749c8.93837,0,12.13088,6.49571,12.61812,16.59915-1.37494-5.26413-6.28712-8.55812-12.68587-8.55812-6.50719,0-11.47589,3.40342-12.75359,8.82342.53354-10.05434,3.96335-16.86444,12.82133-16.86444M29.00554,40.2313v-1.02824h-4.7816V3.83823l21.19144,36.39308h1.83021V3.56864h1.8913v-1.08327h-8.20721v1.08327h4.95781v29.6792L27.58848,2.48537h-7.67331v1.08327h2.95138v35.63442h-2.95138v1.02824h9.09037ZM4.24004,2.48766v1.07571h3.00964v35.64036h-3.00964v1.0289h10.00932v-1.0289h-3.04299V3.56337h3.04299v-1.07571H4.24004Z"/>
    <path class="ineos-logo-svg-1"
          d="m14.11338,60.88936c-.25765,0-.3956-.1295-.3956-.35427v-.33912c0-.33978-.17131-.49996-.56689-.49996h-4.0908c-1.11729,0-1.32369.16018-1.32369,1.0322v4.03484c0,.8717.2064,1.03186,1.32369,1.03186h4.0908c.39558,0,.56689-.16016.56689-.49962v-.9521h-2.47505c-.25834,0-.3956-.12886-.3956-.35561v-1.77436c0-.22641.13727-.35559.3956-.35559h5.44889c.25765,0,.39524.12918.39524.35559v3.64663c0,1.90487-.70485,2.53368-2.81939,2.53368h-7.11518c-1.99413,0-2.88747-.77415-2.88747-2.58148v-6.13318c0-1.80733.89334-2.58113,2.88747-2.58113h7.11518c2.11454,0,2.81939.62847,2.81939,2.53302v.90433c0,.22476-.13759.35427-.39524.35427h-2.57823Z"/>
    <path class="ineos-logo-svg-1"
          d="m27.18306,62.22879h4.53764c.99691,0,1.15136-.14467,1.15136-.91948v-.69407c0-.77481-.15445-.92014-1.15136-.92014h-4.53764v2.53368Zm9.16129-2.54951v2.24302c0,1.80765-.84141,2.74395-2.87065,2.74395h-.05125l3.30065,3.37244c.13725.14501.05125.35527-.13866.35527h-3.38594c-.32645,0-.46335-.06493-.65218-.27519l-2.957-3.29202h-2.40626v3.21194c0,.22541-.15514.35527-.41279.35527h-2.66425c-.25763,0-.39558-.12986-.39558-.35527v-10.5866c0-.22575.13795-.35493.39558-.35493h9.36767c2.02925,0,2.87065.77481,2.87065,2.58212"/>
    <path class="ineos-logo-svg-1"
          d="m55.10211,57.0972c.25763,0,.39558.12952.39558.35495v1.88741c0,.22674-.13795.35626-.39558.35626h-8.21597v1.75823h6.87542c.2401,0,.3956.12952.3956.35559v1.77505c0,.22541-.1555.35493-.3956.35493h-6.87542v1.85611h8.21597c.25763,0,.39558.12853.39558.35493v1.88807c0,.22609-.13795.35495-.39558.35495h-11.29267c-.25765,0-.3956-.12886-.3956-.35495v-10.58658c0-.22543.13795-.35495.3956-.35495h11.29267Z"/>
    <path class="ineos-logo-svg-1"
          d="m70.37158,68.39393c-.27451,0-.44722-.08139-.55005-.29034l-4.50325-8.42432v8.35906c0,.22609-.15409.35559-.39558.35559h-2.40589c-.25836,0-.3956-.1295-.3956-.35559v-10.58591c0-.22609.13725-.35561.3956-.35561h4.52077c.27415,0,.44719.08175.55005.29068l4.50254,8.44079v-8.37586c0-.22609.15445-.35561.41384-.35561h2.38835c.25765,0,.3956.12952.3956.35561v10.58591c0,.22609-.13795.35559-.3956.35559h-4.52077Z"/>
    <path class="ineos-logo-svg-1"
          d="m106.47699,65.79572h4.19364c1.15097,0,1.58237-.32299,1.58237-1.24313v-3.61464c0-.90302-.4314-1.24214-1.58237-1.24214h-4.19364v6.09991Zm5.44891-8.69852c2.38901,0,3.79836,1.2428,3.79836,3.40506v4.48635c0,2.16194-1.40935,3.40506-3.79836,3.40506h-8.52487c-.25836,0-.39595-.12886-.39595-.35495v-10.58658c0-.22543.13759-.35495.39595-.35495h8.52487Z"/>
    <path class="ineos-logo-svg-1"
          d="m125.81977,68.03862c0,.22609-.15413.35561-.41247.35561h-2.66389c-.25765,0-.3949-.12952-.3949-.35561v-10.58658c0-.22541.13725-.35493.3949-.35493h2.66389c.25834,0,.41247.12952.41247.35493v10.58658Z"/>
    <path class="ineos-logo-svg-1"
          d="m144.13254,57.0972c.25761,0,.39451.12952.39451.35495v1.88741c0,.22674-.1369.35626-.39451.35626h-8.21705v1.75823h6.87505c.24154,0,.39631.12952.39631.35559v1.77505c0,.22541-.15477.35493-.39631.35493h-6.87505v1.85611h8.21705c.25761,0,.39451.12853.39451.35493v1.88807c0,.22609-.1369.35495-.39451.35495h-11.29408c-.25697,0-.3949-.12886-.3949-.35495v-10.58658c0-.22543.13793-.35495.3949-.35495h11.29408Z"/>
    <path class="ineos-logo-svg-1"
          d="m154.6232,62.22879h4.53798c.99693,0,1.15101-.14467,1.15101-.91948v-.69407c0-.77481-.15409-.92014-1.15101-.92014h-4.53798v2.53368Zm9.16165-2.54951v2.24302c0,1.80765-.84143,2.74395-2.87102,2.74395h-.0509l3.29994,3.37244c.13866.14501.05163.35527-.13793.35527h-3.38594c-.32681,0-.46337-.06493-.65289-.27519l-2.95629-3.29202h-2.40662v3.21194c0,.22541-.15477.35527-.41242.35527h-2.66427c-.25834,0-.39558-.12986-.39558-.35527v-10.5866c0-.22575.13725-.35493.39558-.35493h9.36733c2.02959,0,2.87102.77481,2.87102,2.58212"/>
    <path class="ineos-logo-svg-1"
          d="m91.06078,57.09746c.15479,0,.27449.0277.36752.0847.09195.05668.15655.14139.19867.25443l4.72718,10.58525c.04248.1048.03897.19775-.00456.26431-.04246.06658-.12461.10679-.23623.10679h-2.91383l-4.08937-8.90778-4.09149,8.90778h-2.91241c-.11233,0-.19376-.04021-.23696-.10679-.04351-.06656-.04703-.15951-.00456-.26431l4.72649-10.58525c.04353-.11305.10811-.19775.20008-.25443.09266-.05701.21272-.0847.36752-.0847h3.90195Z"/>
    <path class="ineos-logo-svg-1"
          d="m4.37412,49.44029h159.25177c.4563,0,.8263-.34735.8263-.77577,0-.42877-.37-.77614-.8263-.77614H4.37412c-.45634,0-.8263.34737-.8263.77614,0,.42843.36996.77577.8263.77577"/>
</svg>