<?xml version="1.0" encoding="utf-8"?>
<!-- Generator: Adobe Illustrator 27.5.0, SVG Export Plug-In . SVG Version: 6.00 Build 0)  -->
<svg version="1.1" id="Layer_1" xmlns="http://www.w3.org/2000/svg" xmlns:xlink="http://www.w3.org/1999/xlink" x="0px" y="0px"
	 viewBox="0 0 691.2 228.1" enable-background="new 0 0 691.2 228.1" xml:space="preserve">
<g>
	<path d="M54.6,176.2v3.2H37.8v9.1h14.8v3.2H37.8v13.1h-4.3v-28.7H54.6L54.6,176.2z M61.1,197.8c0.4,1,0.9,1.8,1.6,2.4
		c0.7,0.7,1.4,1.2,2.3,1.5c0.9,0.3,1.8,0.5,2.8,0.5c1,0,1.9-0.2,2.8-0.5c0.9-0.3,1.7-0.8,2.3-1.5c0.7-0.7,1.2-1.5,1.6-2.4
		c0.4-1,0.6-2.1,0.6-3.4c0-1.3-0.2-2.4-0.6-3.4c-0.4-1-0.9-1.8-1.6-2.5c-0.7-0.7-1.4-1.2-2.3-1.5c-0.9-0.3-1.8-0.5-2.8-0.5
		c-1,0-1.9,0.2-2.8,0.5c-0.9,0.3-1.7,0.9-2.3,1.5c-0.7,0.7-1.2,1.5-1.6,2.5c-0.4,1-0.6,2.1-0.6,3.4
		C60.6,195.7,60.8,196.8,61.1,197.8L61.1,197.8z M57.2,190.2c0.5-1.3,1.2-2.5,2.2-3.5c1-1,2.1-1.7,3.6-2.3c1.4-0.6,3-0.8,4.9-0.8
		c1.9,0,3.5,0.3,4.9,0.8c1.4,0.6,2.6,1.3,3.5,2.3c1,1,1.7,2.1,2.2,3.5c0.5,1.3,0.7,2.8,0.7,4.3c0,1.5-0.2,2.9-0.7,4.3
		c-0.5,1.3-1.2,2.5-2.2,3.4c-1,1-2.1,1.7-3.5,2.3c-1.4,0.5-3,0.8-4.9,0.8c-1.8,0-3.5-0.3-4.9-0.8c-1.4-0.5-2.6-1.3-3.6-2.3
		c-1-1-1.7-2.1-2.2-3.4c-0.5-1.3-0.7-2.7-0.7-4.3C56.5,192.9,56.8,191.5,57.2,190.2L57.2,190.2z M86.2,184.1v4.4h0.1
		c0.9-1.7,2.1-2.9,3.4-3.7c1.4-0.8,3.1-1.2,5.1-1.1v3.6c-1.5,0-2.8,0.2-3.9,0.6c-1.1,0.4-2,0.9-2.6,1.6c-0.7,0.7-1.1,1.6-1.4,2.6
		c-0.3,1-0.5,2.2-0.5,3.6v9.2h-3.8v-20.8H86.2L86.2,184.1z M129.1,202.1c-0.4,0.1-0.8,0.2-1.2,0.2c-0.6,0-1-0.2-1.1-0.6
		c-0.1-0.4-0.2-1-0.2-1.8v-10.7c0-1.2-0.3-2.2-0.8-2.9c-0.5-0.7-1.2-1.3-2-1.7c-0.8-0.4-1.8-0.7-2.8-0.8c-1-0.1-2.1-0.2-3.1-0.2
		c-1.3,0-2.6,0.1-3.7,0.4c-1.2,0.2-2.2,0.6-3.1,1.2c-0.9,0.6-1.6,1.3-2.2,2.1c-0.5,0.9-0.8,2-0.9,3.3h3.8c0.1-1.5,0.7-2.6,1.8-3.1
		c1.1-0.5,2.4-0.8,4.1-0.8c0.6,0,1.2,0,1.8,0.1c0.6,0.1,1.2,0.2,1.7,0.5c0.5,0.2,0.9,0.6,1.2,1c0.3,0.5,0.5,1.1,0.5,1.8
		c0,0.6-0.2,1.1-0.6,1.5c-0.4,0.3-1,0.6-1.7,0.8c-0.7,0.2-1.6,0.3-2.5,0.4c-0.9,0.1-1.9,0.2-3,0.4c-1,0.2-2,0.4-2.9,0.6
		c-0.9,0.2-1.8,0.6-2.5,1.1c-0.7,0.5-1.3,1.1-1.8,1.8c-0.5,0.8-0.7,1.7-0.7,2.9c0,1,0.2,1.9,0.6,2.7c0.4,0.7,1,1.3,1.6,1.8
		c0.7,0.5,1.5,0.8,2.5,1c0.9,0.2,1.9,0.3,3,0.3c1.6,0,3.1-0.2,4.5-0.7c1.4-0.5,2.6-1.3,3.7-2.4c0,1.1,0.3,1.9,0.9,2.4
		c0.6,0.5,1.4,0.7,2.4,0.7c1.2,0,2.1-0.2,2.7-0.5V202.1L129.1,202.1z M122.8,197.6c0,0.5-0.1,1-0.4,1.5c-0.3,0.5-0.7,1.1-1.3,1.5
		c-0.6,0.5-1.3,0.9-2.2,1.2c-0.9,0.3-2,0.5-3.2,0.5c-0.6,0-1.2-0.1-1.7-0.2c-0.5-0.1-1-0.3-1.4-0.5c-0.4-0.2-0.7-0.6-1-0.9
		c-0.3-0.4-0.4-0.9-0.4-1.4c0-0.9,0.2-1.5,0.7-2c0.4-0.5,1-0.9,1.7-1.1c0.7-0.3,1.5-0.5,2.3-0.6c0.9-0.1,1.7-0.2,2.6-0.3
		c0.9-0.1,1.7-0.2,2.5-0.4c0.8-0.1,1.4-0.4,1.9-0.7V197.6L122.8,197.6z M147.3,176.2v10.7h0.1c0.6-1.2,1.6-2,3-2.5
		c1.4-0.5,2.8-0.8,4.5-0.8c1.8,0,3.4,0.3,4.7,0.9c1.3,0.6,2.4,1.4,3.3,2.4c0.9,1,1.6,2.2,2,3.5c0.4,1.3,0.7,2.7,0.7,4.2
		c0,1.5-0.2,2.9-0.7,4.2c-0.4,1.3-1.1,2.5-2,3.4c-0.9,1-2,1.7-3.3,2.3c-1.3,0.6-2.9,0.8-4.7,0.8c-0.6,0-1.2-0.1-1.9-0.2
		c-0.7-0.1-1.4-0.3-2.1-0.5c-0.7-0.2-1.3-0.6-2-1c-0.6-0.4-1.1-0.9-1.6-1.5h-0.1v2.8h-3.8v-28.7H147.3L147.3,176.2z M161,191.4
		c-0.3-0.9-0.7-1.7-1.3-2.5c-0.6-0.7-1.3-1.3-2.3-1.7c-0.9-0.4-2-0.6-3.2-0.6c-1.3,0-2.4,0.2-3.3,0.7c-0.9,0.5-1.6,1.1-2.2,1.8
		c-0.6,0.7-1,1.6-1.2,2.5c-0.3,0.9-0.4,1.9-0.4,2.9c0,1,0.1,2,0.4,3c0.3,1,0.7,1.8,1.3,2.5c0.6,0.7,1.3,1.3,2.3,1.7
		c0.9,0.4,2.1,0.7,3.4,0.7s2.4-0.2,3.3-0.7c0.9-0.5,1.6-1.1,2.1-1.8c0.5-0.7,0.9-1.6,1.2-2.6c0.2-1,0.4-2,0.4-3
		C161.5,193.3,161.3,192.4,161,191.4L161,191.4z M184.7,190.2c-0.3-0.7-0.8-1.3-1.4-1.9c-0.6-0.5-1.3-0.9-2.1-1.2
		c-0.8-0.3-1.7-0.5-2.6-0.5c-1,0-1.9,0.2-2.7,0.5c-0.8,0.3-1.5,0.7-2,1.3c-0.6,0.5-1,1.2-1.4,1.9c-0.3,0.7-0.5,1.5-0.6,2.3h13.4
		C185.2,191.7,185,190.9,184.7,190.2L184.7,190.2z M185.6,203.5c-1.7,1.2-3.9,1.8-6.6,1.8c-1.9,0-3.5-0.3-4.8-0.8
		c-1.4-0.5-2.5-1.3-3.4-2.2c-0.9-1-1.6-2.1-2.1-3.5c-0.5-1.3-0.7-2.8-0.8-4.4c0-1.6,0.3-3,0.8-4.3c0.5-1.3,1.3-2.5,2.3-3.4
		c1-1,2.1-1.7,3.5-2.2c1.3-0.5,2.8-0.8,4.4-0.8c2.1,0,3.8,0.4,5.2,1.1c1.4,0.8,2.5,1.7,3.3,2.9c0.8,1.2,1.4,2.5,1.7,3.9
		c0.3,1.4,0.4,2.7,0.4,4h-17.4c0,0.9,0.1,1.8,0.4,2.6c0.3,0.8,0.7,1.5,1.3,2.2c0.6,0.6,1.4,1.1,2.3,1.5c0.9,0.4,2,0.6,3.3,0.6
		c1.6,0,2.9-0.3,4-1c1-0.7,1.7-1.7,2-3.1h3.8C188.5,200.6,187.3,202.3,185.6,203.5L185.6,203.5z M202.3,184.1v3h-4.6V200
		c0,0.4,0,0.7,0.1,1c0.1,0.2,0.2,0.4,0.4,0.6c0.2,0.1,0.5,0.2,0.9,0.3c0.4,0,0.9,0.1,1.5,0.1h1.8v3h-2.9c-1,0-1.8-0.1-2.5-0.2
		c-0.7-0.1-1.3-0.3-1.7-0.7c-0.4-0.3-0.8-0.8-1-1.4s-0.3-1.4-0.3-2.3v-13.2h-4v-3h4v-6.2h3.8v6.2H202.3L202.3,184.1z M215.6,184.1v3
		H211V200c0,0.4,0,0.7,0.1,1s0.2,0.4,0.4,0.6c0.2,0.1,0.5,0.2,0.9,0.3c0.4,0,0.9,0.1,1.5,0.1h1.8v3h-2.9c-1,0-1.8-0.1-2.5-0.2
		c-0.7-0.1-1.3-0.3-1.7-0.7c-0.4-0.3-0.8-0.8-1-1.4s-0.3-1.4-0.3-2.3v-13.2h-4v-3h4v-6.2h3.8v6.2H215.6L215.6,184.1z M234.5,190.2
		c-0.3-0.7-0.8-1.3-1.4-1.9c-0.6-0.5-1.3-0.9-2.1-1.2c-0.8-0.3-1.7-0.5-2.6-0.5c-1,0-1.9,0.2-2.7,0.5c-0.8,0.3-1.5,0.7-2,1.3
		c-0.6,0.5-1,1.2-1.4,1.9c-0.3,0.7-0.5,1.5-0.6,2.3h13.4C235.1,191.7,234.9,190.9,234.5,190.2L234.5,190.2z M235.4,203.5
		c-1.7,1.2-3.9,1.8-6.6,1.8c-1.9,0-3.5-0.3-4.8-0.8c-1.4-0.5-2.5-1.3-3.4-2.2c-0.9-1-1.6-2.1-2.1-3.5c-0.5-1.3-0.7-2.8-0.8-4.4
		c0-1.6,0.3-3,0.8-4.3c0.5-1.3,1.3-2.5,2.3-3.4c1-1,2.1-1.7,3.5-2.2c1.3-0.5,2.8-0.8,4.4-0.8c2.1,0,3.8,0.4,5.2,1.1
		c1.4,0.8,2.5,1.7,3.3,2.9c0.8,1.2,1.4,2.5,1.7,3.9c0.3,1.4,0.4,2.7,0.4,4h-17.4c0,0.9,0.1,1.8,0.4,2.6c0.3,0.8,0.7,1.5,1.3,2.2
		c0.6,0.6,1.4,1.1,2.3,1.5c0.9,0.4,2,0.6,3.3,0.6c1.6,0,2.9-0.3,4-1c1-0.7,1.7-1.7,2-3.1h3.8C238.3,200.6,237.2,202.3,235.4,203.5
		L235.4,203.5z M245.7,184.1v4.4h0.1c0.9-1.7,2.1-2.9,3.4-3.7c1.4-0.8,3.1-1.2,5.1-1.1v3.6c-1.5,0-2.8,0.2-3.9,0.6
		c-1.1,0.4-2,0.9-2.6,1.6c-0.7,0.7-1.1,1.6-1.4,2.6c-0.3,1-0.5,2.2-0.5,3.6v9.2h-3.8v-20.8H245.7L245.7,184.1z M271.5,184.1v3.1h0.1
		c1.7-2.4,4.2-3.5,7.5-3.5c1.4,0,2.7,0.3,3.9,0.8c1.2,0.5,2,1.4,2.5,2.7c0.8-1.1,1.8-2,3.1-2.6c1.3-0.6,2.7-0.9,4.2-0.9
		c1.2,0,2.2,0.1,3.2,0.3c0.9,0.2,1.8,0.6,2.4,1.1c0.7,0.5,1.2,1.1,1.6,1.9c0.4,0.8,0.6,1.7,0.6,2.8v15.2h-3.8v-13.6
		c0-0.6-0.1-1.2-0.2-1.8c-0.1-0.6-0.3-1.1-0.7-1.5c-0.3-0.4-0.8-0.7-1.4-1c-0.6-0.2-1.3-0.4-2.3-0.4c-1.9,0-3.4,0.5-4.5,1.4
		c-1.1,1-1.6,2.2-1.6,3.9v12.9h-3.8v-13.6c0-0.7-0.1-1.3-0.2-1.8c-0.1-0.6-0.4-1.1-0.7-1.5c-0.3-0.4-0.8-0.7-1.3-1
		c-0.6-0.2-1.3-0.3-2.1-0.3c-1.1,0-2.1,0.2-2.9,0.6c-0.8,0.4-1.4,0.9-1.9,1.4c-0.5,0.6-0.9,1.1-1.1,1.7c-0.2,0.6-0.3,1.1-0.3,1.5
		v12.9h-3.8v-20.8H271.5L271.5,184.1z M308.8,197.8c0.4,1,0.9,1.8,1.6,2.4c0.7,0.7,1.4,1.2,2.3,1.5c0.9,0.3,1.8,0.5,2.8,0.5
		c1,0,1.9-0.2,2.8-0.5c0.9-0.3,1.7-0.8,2.3-1.5c0.7-0.7,1.2-1.5,1.6-2.4c0.4-1,0.6-2.1,0.6-3.4c0-1.3-0.2-2.4-0.6-3.4
		c-0.4-1-0.9-1.8-1.6-2.5c-0.7-0.7-1.4-1.2-2.3-1.5c-0.9-0.3-1.8-0.5-2.8-0.5c-1,0-1.9,0.2-2.8,0.5c-0.9,0.3-1.7,0.9-2.3,1.5
		c-0.7,0.7-1.2,1.5-1.6,2.5c-0.4,1-0.6,2.1-0.6,3.4C308.2,195.7,308.4,196.8,308.8,197.8L308.8,197.8z M304.9,190.2
		c0.5-1.3,1.2-2.5,2.2-3.5c1-1,2.1-1.7,3.6-2.3c1.4-0.6,3-0.8,4.9-0.8c1.9,0,3.5,0.3,4.9,0.8c1.4,0.6,2.6,1.3,3.5,2.3
		c1,1,1.7,2.1,2.2,3.5c0.5,1.3,0.7,2.8,0.7,4.3c0,1.5-0.2,2.9-0.7,4.3c-0.5,1.3-1.2,2.5-2.2,3.4c-1,1-2.1,1.7-3.5,2.3
		c-1.4,0.5-3,0.8-4.9,0.8c-1.8,0-3.5-0.3-4.9-0.8c-1.4-0.5-2.6-1.3-3.6-2.3c-1-1-1.7-2.1-2.2-3.4c-0.5-1.3-0.7-2.7-0.7-4.3
		C304.2,192.9,304.4,191.5,304.9,190.2L304.9,190.2z M340.3,184.1v3h-4.6V200c0,0.4,0,0.7,0.1,1c0.1,0.2,0.2,0.4,0.4,0.6
		c0.2,0.1,0.5,0.2,0.9,0.3c0.4,0,0.9,0.1,1.5,0.1h1.8v3h-2.9c-1,0-1.8-0.1-2.5-0.2c-0.7-0.1-1.3-0.3-1.7-0.7c-0.4-0.3-0.8-0.8-1-1.4
		c-0.2-0.6-0.3-1.4-0.3-2.3v-13.2h-4v-3h4v-6.2h3.8v6.2H340.3L340.3,184.1z M347,197.8c0.4,1,0.9,1.8,1.6,2.4
		c0.7,0.7,1.4,1.2,2.3,1.5c0.9,0.3,1.8,0.5,2.8,0.5c1,0,1.9-0.2,2.8-0.5c0.9-0.3,1.7-0.8,2.3-1.5c0.7-0.7,1.2-1.5,1.6-2.4
		c0.4-1,0.6-2.1,0.6-3.4c0-1.3-0.2-2.4-0.6-3.4s-0.9-1.8-1.6-2.5c-0.7-0.7-1.4-1.2-2.3-1.5c-0.9-0.3-1.8-0.5-2.8-0.5
		c-1,0-1.9,0.2-2.8,0.5c-0.9,0.3-1.7,0.9-2.3,1.5c-0.7,0.7-1.2,1.5-1.6,2.5s-0.6,2.1-0.6,3.4C346.5,195.7,346.6,196.8,347,197.8
		L347,197.8z M343.1,190.2c0.5-1.3,1.2-2.5,2.2-3.5c1-1,2.1-1.7,3.6-2.3c1.4-0.6,3-0.8,4.9-0.8c1.9,0,3.5,0.3,4.9,0.8
		c1.4,0.6,2.6,1.3,3.5,2.3c1,1,1.7,2.1,2.2,3.5c0.5,1.3,0.7,2.8,0.7,4.3c0,1.5-0.2,2.9-0.7,4.3c-0.5,1.3-1.2,2.5-2.2,3.4
		c-1,1-2.1,1.7-3.5,2.3c-1.4,0.5-3,0.8-4.9,0.8c-1.8,0-3.5-0.3-4.9-0.8c-1.4-0.5-2.6-1.3-3.6-2.3c-1-1-1.7-2.1-2.2-3.4
		c-0.5-1.3-0.7-2.7-0.7-4.3C342.4,192.9,342.6,191.5,343.1,190.2L343.1,190.2z M372.1,184.1v4.4h0.1c0.9-1.7,2.1-2.9,3.4-3.7
		c1.4-0.8,3.1-1.2,5.1-1.1v3.6c-1.5,0-2.8,0.2-3.9,0.6c-1.1,0.4-2,0.9-2.6,1.6c-0.7,0.7-1.1,1.6-1.4,2.6c-0.3,1-0.5,2.2-0.5,3.6v9.2
		h-3.8v-20.8H372.1L372.1,184.1z M382.9,180.3v-4.2h3.8v4.2H382.9L382.9,180.3z M386.7,184.1v20.8h-3.8v-20.8H386.7L386.7,184.1z
		 M395.4,184.1v3.3h0.1c1.6-2.5,4.1-3.8,7.6-3.8c1.5,0,2.8,0.2,3.8,0.6c1,0.4,1.8,0.9,2.5,1.6c0.6,0.7,1.1,1.5,1.3,2.4
		c0.3,0.9,0.4,1.9,0.4,3.1v13.7h-3.8v-14.1c0-1.3-0.4-2.3-1.3-3.1c-0.8-0.8-2-1.1-3.5-1.1c-1.2,0-2.2,0.2-3,0.5
		c-0.9,0.3-1.6,0.8-2.1,1.4c-0.6,0.6-1,1.3-1.3,2.1c-0.3,0.8-0.4,1.7-0.4,2.6v11.7h-3.8v-20.8H395.4L395.4,184.1z M433.4,210.7
		c-1.7,1.7-4.5,2.5-8.2,2.5c-1.1,0-2.2-0.1-3.3-0.3c-1.1-0.2-2.1-0.6-3.1-1c-0.9-0.5-1.7-1.1-2.3-1.9c-0.6-0.8-0.9-1.7-1-2.9h3.8
		c0,0.6,0.2,1.1,0.7,1.6c0.4,0.4,0.9,0.8,1.5,1c0.6,0.3,1.2,0.5,1.9,0.6c0.7,0.1,1.4,0.2,2,0.2c1.3,0,2.3-0.2,3.2-0.6
		c0.9-0.4,1.6-0.9,2.2-1.6c0.6-0.7,1-1.5,1.2-2.5c0.3-1,0.4-2,0.4-3.2v-1.4h-0.1c-0.7,1.3-1.7,2.2-3,2.8c-1.3,0.6-2.8,0.9-4.3,0.9
		c-1.7,0-3.3-0.3-4.5-0.8c-1.3-0.6-2.4-1.3-3.2-2.3c-0.9-1-1.5-2.1-2-3.3c-0.4-1.3-0.7-2.6-0.7-4c0-1.2,0.2-2.5,0.5-3.8
		c0.4-1.3,1-2.5,1.8-3.5c0.8-1.1,2-1.9,3.3-2.6c1.4-0.7,3.1-1,5.1-1c1.5,0,2.8,0.3,4.1,0.9c1.2,0.6,2.2,1.4,2.9,2.6h0v-3h3.6v19
		C436,206.5,435.1,209,433.4,210.7L433.4,210.7z M428.5,201.4c0.9-0.5,1.6-1.1,2.1-1.8c0.5-0.8,0.9-1.6,1.2-2.6s0.4-1.9,0.4-2.9
		c0-0.9-0.1-1.8-0.4-2.7c-0.2-0.9-0.6-1.7-1.1-2.4c-0.5-0.7-1.2-1.3-2-1.7c-0.8-0.4-1.9-0.6-3.1-0.6c-1.2,0-2.3,0.2-3.2,0.6
		c-0.9,0.4-1.6,1-2.1,1.7c-0.6,0.7-1,1.5-1.2,2.4c-0.3,0.9-0.4,1.9-0.4,2.9c0,0.9,0.1,1.9,0.3,2.8c0.2,0.9,0.6,1.8,1.1,2.6
		c0.5,0.8,1.2,1.4,2,1.8c0.8,0.5,1.9,0.7,3.2,0.7C426.5,202.1,427.6,201.8,428.5,201.4L428.5,201.4z M468,190.2
		c-0.3-0.7-0.8-1.3-1.4-1.9c-0.6-0.5-1.3-0.9-2.1-1.2c-0.8-0.3-1.7-0.5-2.6-0.5c-1,0-1.9,0.2-2.7,0.5c-0.8,0.3-1.5,0.7-2,1.3
		c-0.6,0.5-1,1.2-1.4,1.9c-0.3,0.7-0.5,1.5-0.6,2.3h13.4C468.6,191.7,468.4,190.9,468,190.2L468,190.2z M469,203.5
		c-1.7,1.2-3.9,1.8-6.6,1.8c-1.9,0-3.5-0.3-4.8-0.8c-1.4-0.5-2.5-1.3-3.4-2.2c-0.9-1-1.6-2.1-2.1-3.5c-0.5-1.3-0.7-2.8-0.8-4.4
		c0-1.6,0.3-3,0.8-4.3c0.5-1.3,1.3-2.5,2.3-3.4c1-1,2.1-1.7,3.5-2.2c1.3-0.5,2.8-0.8,4.4-0.8c2.1,0,3.8,0.4,5.2,1.1
		c1.4,0.8,2.5,1.7,3.3,2.9c0.8,1.2,1.4,2.5,1.7,3.9c0.3,1.4,0.4,2.7,0.4,4h-17.4c0,0.9,0.1,1.8,0.4,2.6c0.3,0.8,0.7,1.5,1.3,2.2
		c0.6,0.6,1.4,1.1,2.3,1.5c0.9,0.4,2,0.6,3.3,0.6c1.6,0,2.9-0.3,4-1c1-0.7,1.7-1.7,2-3.1h3.8C471.8,200.6,470.7,202.3,469,203.5
		L469,203.5z M473.9,184.1h4.9l5.6,7.3l5.8-7.3h4.6l-8,9.6l9,11.2h-4.9l-6.5-8.6l-6.5,8.6h-4.6l8.7-10.9L473.9,184.1L473.9,184.1z
		 M502.1,184.1v2.8h0.1c0.6-1.2,1.6-2,3-2.5c1.4-0.5,2.8-0.8,4.5-0.8c1.8,0,3.4,0.3,4.7,0.9c1.3,0.6,2.4,1.4,3.3,2.4
		c0.9,1,1.6,2.2,2,3.5c0.5,1.3,0.7,2.7,0.7,4.2c0,1.5-0.2,2.9-0.7,4.2c-0.4,1.3-1.1,2.5-2,3.4c-0.9,1-2,1.7-3.3,2.3
		c-1.3,0.6-2.9,0.8-4.7,0.8c-0.6,0-1.2-0.1-1.9-0.2c-0.7-0.1-1.4-0.3-2.1-0.5c-0.7-0.2-1.3-0.6-2-1c-0.6-0.4-1.1-0.9-1.6-1.5h-0.1
		v10.7h-3.8v-28.7H502.1L502.1,184.1z M515.9,191.4c-0.3-0.9-0.7-1.7-1.3-2.5c-0.6-0.7-1.3-1.3-2.3-1.7c-0.9-0.4-2-0.6-3.2-0.6
		c-1.3,0-2.4,0.2-3.3,0.7c-0.9,0.5-1.6,1.1-2.2,1.8c-0.6,0.7-1,1.6-1.2,2.5c-0.3,0.9-0.4,1.9-0.4,2.9c0,1,0.1,2,0.4,3
		c0.3,1,0.7,1.8,1.3,2.5c0.6,0.7,1.3,1.3,2.3,1.7c0.9,0.4,2.1,0.7,3.4,0.7c1.3,0,2.4-0.2,3.3-0.7c0.9-0.5,1.6-1.1,2.1-1.8
		c0.5-0.7,0.9-1.6,1.2-2.6c0.2-1,0.4-2,0.4-3C516.3,193.3,516.2,192.4,515.9,191.4L515.9,191.4z M539.5,190.2
		c-0.3-0.7-0.8-1.3-1.4-1.9c-0.6-0.5-1.3-0.9-2.1-1.2c-0.8-0.3-1.7-0.5-2.6-0.5c-1,0-1.9,0.2-2.7,0.5c-0.8,0.3-1.5,0.7-2,1.3
		c-0.6,0.5-1,1.2-1.4,1.9c-0.3,0.7-0.5,1.5-0.6,2.3h13.4C540.1,191.7,539.9,190.9,539.5,190.2L539.5,190.2z M540.4,203.5
		c-1.7,1.2-3.9,1.8-6.6,1.8c-1.9,0-3.5-0.3-4.8-0.8c-1.4-0.5-2.5-1.3-3.4-2.2c-0.9-1-1.6-2.1-2.1-3.5c-0.5-1.3-0.7-2.8-0.8-4.4
		c0-1.6,0.3-3,0.8-4.3c0.5-1.3,1.3-2.5,2.3-3.4c1-1,2.1-1.7,3.5-2.2c1.3-0.5,2.8-0.8,4.4-0.8c2.1,0,3.8,0.4,5.2,1.1
		c1.4,0.8,2.5,1.7,3.3,2.9c0.8,1.2,1.4,2.5,1.7,3.9c0.3,1.4,0.4,2.7,0.4,4h-17.4c0,0.9,0.1,1.8,0.4,2.6c0.3,0.8,0.7,1.5,1.3,2.2
		c0.6,0.6,1.4,1.1,2.3,1.5c0.9,0.4,2,0.6,3.3,0.6c1.6,0,2.9-0.3,4-1c1-0.7,1.7-1.7,2-3.1h3.8C543.3,200.6,542.2,202.3,540.4,203.5
		L540.4,203.5z M550.7,184.1v4.4h0.1c0.9-1.7,2.1-2.9,3.4-3.7c1.4-0.8,3.1-1.2,5.1-1.1v3.6c-1.5,0-2.8,0.2-3.9,0.6
		c-1.1,0.4-2,0.9-2.6,1.6c-0.7,0.7-1.1,1.6-1.4,2.6c-0.3,1-0.5,2.2-0.5,3.6v9.2h-3.8v-20.8H550.7L550.7,184.1z M561.6,180.3v-4.2
		h3.8v4.2H561.6L561.6,180.3z M565.4,184.1v20.8h-3.8v-20.8H565.4L565.4,184.1z M586,190.2c-0.3-0.7-0.8-1.3-1.4-1.9
		c-0.6-0.5-1.3-0.9-2.1-1.2c-0.8-0.3-1.7-0.5-2.6-0.5c-1,0-1.9,0.2-2.7,0.5c-0.8,0.3-1.5,0.7-2,1.3c-0.6,0.5-1,1.2-1.4,1.9
		c-0.3,0.7-0.5,1.5-0.6,2.3h13.4C586.5,191.7,586.3,190.9,586,190.2L586,190.2z M586.9,203.5c-1.7,1.2-3.9,1.8-6.6,1.8
		c-1.9,0-3.5-0.3-4.8-0.8c-1.4-0.5-2.5-1.3-3.4-2.2c-0.9-1-1.6-2.1-2.1-3.5c-0.5-1.3-0.7-2.8-0.8-4.4c0-1.6,0.3-3,0.8-4.3
		c0.5-1.3,1.3-2.5,2.3-3.4c1-1,2.1-1.7,3.5-2.2c1.3-0.5,2.8-0.8,4.4-0.8c2.1,0,3.8,0.4,5.2,1.1c1.4,0.8,2.5,1.7,3.3,2.9
		c0.8,1.2,1.4,2.5,1.7,3.9c0.3,1.4,0.4,2.7,0.4,4h-17.4c0,0.9,0.1,1.8,0.4,2.6c0.3,0.8,0.7,1.5,1.3,2.2c0.6,0.6,1.4,1.1,2.3,1.5
		c0.9,0.4,2,0.6,3.3,0.6c1.6,0,2.9-0.3,4-1c1-0.7,1.7-1.7,2-3.1h3.8C589.8,200.6,588.6,202.3,586.9,203.5L586.9,203.5z M597.3,184.1
		v3.3h0.1c1.6-2.5,4.1-3.8,7.6-3.8c1.5,0,2.8,0.2,3.8,0.6c1,0.4,1.8,0.9,2.5,1.6c0.6,0.7,1.1,1.5,1.3,2.4c0.3,0.9,0.4,1.9,0.4,3.1
		v13.7h-3.8v-14.1c0-1.3-0.4-2.3-1.3-3.1c-0.8-0.8-2-1.1-3.5-1.1c-1.2,0-2.2,0.2-3,0.5c-0.9,0.3-1.6,0.8-2.1,1.4
		c-0.6,0.6-1,1.3-1.3,2.1c-0.3,0.8-0.4,1.7-0.4,2.6v11.7h-3.8v-20.8H597.3L597.3,184.1z M631.7,187.7c-1-0.7-2.3-1.1-3.9-1.1
		c-1.4,0-2.5,0.2-3.5,0.7c-0.9,0.5-1.7,1.1-2.2,1.8c-0.6,0.8-1,1.6-1.2,2.6c-0.2,1-0.4,2-0.4,3c0,1,0.1,1.9,0.4,2.8
		c0.3,0.9,0.7,1.7,1.2,2.4c0.5,0.7,1.2,1.3,2.1,1.7c0.9,0.4,1.9,0.6,3.1,0.6c1.9,0,3.4-0.4,4.4-1.3c1.1-0.9,1.7-2.1,2-3.7h3.9
		c-0.4,2.6-1.5,4.6-3.2,5.9c-1.7,1.4-4.1,2.1-7,2.1c-1.8,0-3.3-0.3-4.7-0.8c-1.4-0.5-2.5-1.2-3.4-2.2c-0.9-0.9-1.6-2.1-2.1-3.4
		s-0.7-2.7-0.7-4.3c0-1.6,0.2-3,0.7-4.4c0.5-1.4,1.1-2.5,2-3.5c0.9-1,2.1-1.8,3.4-2.4c1.4-0.6,3-0.9,4.8-0.9c1.3,0,2.6,0.1,3.7,0.4
		c1.2,0.3,2.2,0.7,3.1,1.3c0.9,0.6,1.6,1.3,2.2,2.2c0.6,0.9,0.9,2,1.1,3.2h-4C633.3,189.4,632.7,188.4,631.7,187.7L631.7,187.7z
		 M656.7,190.2c-0.3-0.7-0.8-1.3-1.4-1.9c-0.6-0.5-1.3-0.9-2.1-1.2c-0.8-0.3-1.7-0.5-2.6-0.5c-1,0-1.9,0.2-2.7,0.5
		c-0.8,0.3-1.5,0.7-2,1.3c-0.6,0.5-1,1.2-1.3,1.9c-0.3,0.7-0.5,1.5-0.6,2.3h13.4C657.2,191.7,657,190.9,656.7,190.2L656.7,190.2z
		 M657.6,203.5c-1.7,1.2-3.9,1.8-6.6,1.8c-1.9,0-3.5-0.3-4.8-0.8c-1.4-0.5-2.5-1.3-3.4-2.2c-0.9-1-1.6-2.1-2.1-3.5
		c-0.5-1.3-0.7-2.8-0.8-4.4c0-1.6,0.3-3,0.8-4.3s1.3-2.5,2.3-3.4c1-1,2.1-1.7,3.5-2.2c1.3-0.5,2.8-0.8,4.4-0.8
		c2.1,0,3.8,0.4,5.2,1.1c1.4,0.8,2.5,1.7,3.3,2.9c0.8,1.2,1.4,2.5,1.7,3.9c0.3,1.4,0.4,2.7,0.4,4h-17.4c0,0.9,0.1,1.8,0.4,2.6
		c0.3,0.8,0.7,1.5,1.3,2.2c0.6,0.6,1.4,1.1,2.3,1.5c0.9,0.4,2,0.6,3.3,0.6c1.6,0,2.9-0.3,4-1c1-0.7,1.7-1.7,2-3.1h3.8
		C660.5,200.6,659.3,202.3,657.6,203.5L657.6,203.5z"/>
	<path d="M43.4,151.5V90H30.5v61.5H43.4L43.4,151.5z M64.7,151.5v-24.5c0-4.4,1.6-7.8,4.8-10.3c2.6-2,5.7-2.9,9.4-2.9
		c7.6,0,11.5,3.5,11.5,10.5v27.2h11.9v-31c0-10.6-6.5-15.8-19.5-15.8c-7.8,0-13.8,2.7-18.1,8.1v-6.9H52.8v45.6H64.7L64.7,151.5z
		 M139,151.5l20.8-45.6h-13.4l-14.1,33.9l-13.6-33.9h-13.4l20.8,45.6H139L139,151.5z M175,151.5v-45.6h-11.9v45.6H175L175,151.5z
		 M175,98.6v-9.6h-11.9v9.6H175L175,98.6z M223.7,107.2c-4.2-2.1-8.9-3.1-14.2-3.1c-8.7,0-15.6,2.2-20.7,6.7
		c-5.1,4.5-7.6,10.4-7.6,17.9c0,6.9,2.2,12.6,6.5,17c5,5.1,12.3,7.6,21.8,7.6c4.7,0,9-0.8,12.8-2.5c7.2-3.1,11.3-8.7,12.5-16.7
		h-12.4c-1.4,3.6-2.9,6.1-4.6,7.5c-2.1,1.7-5.3,2.6-9.6,2.6c-4.8,0-8.5-1.6-11.1-4.7c-2.3-2.8-3.4-6.3-3.4-10.7
		c0-4.3,1.3-7.9,3.8-10.7c2.9-3.2,6.9-4.7,12.1-4.7c3.3,0,6.2,0.8,8.5,2.5c2.3,1.7,3.7,3.7,4.2,6.1h12.4
		C233.5,115.1,229.8,110.3,223.7,107.2L223.7,107.2L223.7,107.2z M246.7,148.8c2.1,2.5,6.5,3.7,13.2,3.7c2.7,0,5.7-0.2,9.1-0.7v-8.5
		c-3.8,0-6.6,0-8.5,0c-1.9,0-3.1-0.7-3.7-2.1c-0.4-1-0.6-3-0.6-6v-20.8h12.4v-8.6h-12.4V91.7h-11.9v14.1h-9.5v8.6h9.5v24.3
		C244.3,143.7,245.1,147,246.7,148.8L246.7,148.8L246.7,148.8z M319.5,109.5c-3.7-3.6-10.7-5.4-21.2-5.4c-7.2,0-12.7,1.1-16.5,3.4
		c-4.3,2.5-6.9,6.6-7.7,12.3h11.6c0.4-5.1,4.6-7.6,12.5-7.6c8.6,0,12.9,2.2,12.9,6.5c0,1.8-1,3-3.1,3.6c-2,0.6-7.3,1.3-15.8,2.2
		c-6,0.6-10.3,1.5-13.1,2.8c-4.9,2.3-7.4,6.2-7.4,11.6c0,4.5,1.6,8,4.9,10.5c3.2,2.5,7.8,3.8,13.7,3.8c9.9,0,17.1-2.1,21.4-6.3
		c0.8,3.9,3.8,5.9,9,5.9c1.9,0,4.7-0.3,8.4-1v-8.4c-0.9,0.2-2.2,0.3-3.9,0.3c-1.7,0-2.6-0.9-2.6-2.6v-21.6
		C322.8,115,321.7,111.7,319.5,109.5L319.5,109.5L319.5,109.5z M304.8,143.1c-3,1.7-6.7,2.5-10.9,2.5c-6.4,0-9.6-2.4-9.6-7.1
		c0-2,0.7-3.5,2.2-4.5c1.7-1.1,4.7-1.9,9-2.4c8.1-0.9,13.3-1.9,15.6-2.8v4.4C311,137.6,308.9,140.9,304.8,143.1L304.8,143.1
		L304.8,143.1z M367.2,90h-9.3v61.5h6.4V98.2l27.2,53.2h5.9l27.3-53.2v53.2h6.4V90h-9l-27.4,53.5L367.2,90L367.2,90z M451.5,115.7
		c3.4-3.4,8-5.1,14-5.1c5.9,0,10.6,1.7,14,5.1c3.4,3.4,5.1,7.8,5.1,13.4c0,5.5-1.7,10-5.1,13.4c-3.4,3.4-8,5.1-14,5.1
		c-5.9,0-10.6-1.7-14-5.1c-3.4-3.4-5.1-7.8-5.1-13.4C446.4,123.6,448.1,119.1,451.5,115.7L451.5,115.7z M446.4,145.6
		c4.6,4.8,11,7.2,19.1,7.2c8.2,0,14.6-2.4,19.2-7.2c4.1-4.3,6.2-9.8,6.2-16.5c0-6.7-2.1-12.2-6.2-16.5c-4.7-4.8-11.1-7.2-19.2-7.2
		c-8.2,0-14.5,2.4-19.1,7.2c-4.2,4.3-6.3,9.8-6.3,16.5C440.1,135.8,442.2,141.3,446.4,145.6L446.4,145.6L446.4,145.6z M493.8,106.7
		v4.8h9.7v29.6c0,3.9,0.8,6.7,2.3,8.3c1.8,1.9,5,2.8,9.7,2.8c2.2,0,4.6-0.2,7-0.5v-5.4c-1.6,0.4-3.7,0.6-6.3,0.6
		c-2.5,0-4.2-0.4-5-1.3c-0.9-0.9-1.3-2.3-1.3-4.4v-29.7h12.7v-4.8h-12.7V92.6h-6.4v14.1H493.8L493.8,106.7z M539.4,115.7
		c3.4-3.4,8-5.1,14-5.1c5.9,0,10.6,1.7,14,5.1c3.4,3.4,5.1,7.8,5.1,13.4c0,5.5-1.7,10-5.1,13.4c-3.4,3.4-8,5.1-14,5.1
		c-5.9,0-10.6-1.7-14-5.1c-3.4-3.4-5.1-7.8-5.1-13.4C534.3,123.6,536,119.1,539.4,115.7L539.4,115.7z M534.2,145.6
		c4.6,4.8,11,7.2,19.1,7.2c8.2,0,14.6-2.4,19.2-7.2c4.1-4.3,6.2-9.8,6.2-16.5c0-6.7-2.1-12.2-6.2-16.5c-4.7-4.8-11.1-7.2-19.2-7.2
		c-8.2,0-14.5,2.4-19.1,7.2c-4.2,4.3-6.3,9.8-6.3,16.5C527.9,135.8,530,141.3,534.2,145.6L534.2,145.6L534.2,145.6z M593.4,151.5
		v-22.8c0-5.8,1.7-10.2,5.1-13.3c2.7-2.5,6.1-3.7,10.2-3.7c2,0,3.9,0.2,5.9,0.5v-6.5c-1.3-0.2-2.5-0.3-3.8-0.3
		c-8.1,0-13.9,3.9-17.3,11.6v-10.2H587v44.8H593.4L593.4,151.5z M636.8,105.3c-6.3,0-11.2,1.2-14.6,3.7c-3.2,2.4-4.7,5.5-4.7,9.6
		c0,4,1.4,6.9,4.2,8.7c2.8,1.9,7.7,3.1,14.6,3.8c6.8,0.7,11.4,1.6,13.8,2.8c2.2,1.1,3.4,2.8,3.4,5.1c0,5.7-5,8.5-14.9,8.5
		c-5.7,0-9.8-0.7-12.3-2.2c-2.4-1.5-3.9-4.1-4.5-7.8h-5.9c0,10.3,7.6,15.4,22.7,15.4c6.9,0,12.2-1.2,15.8-3.7
		c3.6-2.5,5.4-6,5.4-10.5c0-4.2-1.5-7.2-4.6-9c-2.6-1.6-7.6-2.9-14.8-3.9c-7-0.9-11.5-1.8-13.4-2.7c-2.1-0.9-3.2-2.4-3.2-4.7
		c0-5.1,4.3-7.7,12.9-7.7c4.8,0,8.4,0.6,10.6,1.9c2.4,1.4,4,3.9,4.8,7.4h5.9C657.3,110.2,650.2,105.3,636.8,105.3L636.8,105.3
		L636.8,105.3z"/>
	<g>
		<path fill="#05689D" d="M299.6,61.8l35.8-1.4c0,0,11.7-0.3,17.3,6.9c5.7,7.2,11.5,4.8,17.5,1.5c6-3.2,11.9-4.6,9.4-14.9
			c-2.5-10.4-13.8-14.1-13.8-14.1s15.8,1.9,19.1,6.7c0,0-1.6,5.3,3,6.8c0.8,0.3,3.5,8.5-1.9,12.7c-5.4,4.2-27,15.7-27,15.7l-22,4.7
			l-10.9-14.9L307,65.2L299.6,61.8z M334.3,72.4c0.5,2.5,2.3,4.4,4,4.2c1.7-0.2,2.8-2.3,2.3-4.8c-0.5-2.5-2.3-4.4-4-4.2
			C334.8,67.7,333.8,69.9,334.3,72.4 M343.4,70.1c0.5,2.4,2.5,4.2,4.6,4c2.1-0.2,3.4-2.4,2.9-4.8c-0.5-2.4-2.5-4.2-4.6-4
			C344.3,65.5,343,67.7,343.4,70.1 M380.1,53.2c0.3,2.4,1.3,4.3,2.3,4.2c1-0.1,1.5-2.1,1.2-4.6c-0.3-2.4-1.3-4.3-2.3-4.2
			C380.3,48.7,379.8,50.7,380.1,53.2 M298.8,79.3l-1.9-18.8l22.6-3.6l31-22c0,0-1.7-4.9-11.5-6.1C234.6,15,191,89.5,191,89.5
			c40-36.4,88.9-16.7,88.8-21c-0.1-3.2,1.2-4.4,2.5-4.7c2.5-0.5,4,3.7,3.9,7.5c0,2.1-0.4,5.4,1.8,5.4c4.2,0,9.4,3.9,9.4,3.9
			L298.8,79.3z M356.2,65.6c-2.5-3.3,0.3-5.6,0.3-5.6s8.9-3.7,15.7-6.9c7-3.3,9.3,7.4-0.9,12.5C361.4,70.6,357.3,67.1,356.2,65.6"/>
	</g>
	<path fill="#0395C1" d="M297.4,80.7c0,0-6.8-3.5-6.8-13.5c0-4.7,2.8-7.3,11.3-6.9c3.7,0.2,18.4,3.7,18.4,3.7s6.9,2.2,11.7,10.4
		c4.8,8.2,12,10.9,36,0.3C391.4,64.3,389,59.5,389,59.5s1,7.7-7.3,14.5c-9.9,8.1-32.8,16.6-40.8,17.1c-8,0.6-12-3.3-14.7-8.9
		c-2.6-5.6-3.9-9.9-7-9.5c-3.1,0.3-3.8,5.1-3.3,8.4c0.5,3.3,0.5,7.7-6.3,5C303,83.2,297.4,80.7,297.4,80.7 M316.1,33.7
		c13.8-4.8,21.6-4.9,26.7-3.9c5.1,1,19.8,8.8,19.8,8.8s-30,14.1-40.4,17.6c-10.4,3.5-11.1-3-14.8-8.3c-3.7-5.4-13.5-4.8-13.5-4.8
		S302.3,38.5,316.1,33.7"/>
</g>
</svg>
