<?xml version="1.0" encoding="utf-8"?>
<!-- Generator: Adobe Illustrator 27.4.1, SVG Export Plug-In . SVG Version: 6.00 Build 0)  -->
<svg version="1.1" id="Layer_2" xmlns="http://www.w3.org/2000/svg" xmlns:xlink="http://www.w3.org/1999/xlink" x="0px" y="0px"
	 viewBox="0 0 425.3 223.9" style="enable-background:new 0 0 425.3 223.9;" xml:space="preserve">
<style type="text/css">
	.st0{fill:#FFFFFF;}
</style>
<g id="Artwork">
	<g>
		<g>
			<path class="st0" d="M89.4,103l34.6,0l4.2-12.1H108l13.3-38.6h-17.3l-0.4,1.3l0.9,0.9c0.9,0.9,0.9,2,0.1,4.4L89.4,103z
				 M127.5,103h14.7l6.4-11.2h15.2l0.2,11.2h13.3l-2.9-50.6h-20l-0.4,1.3l0.6,0.6c1.1,1,0.6,2.5-3.3,8.7L127.5,103z M162.9,66.3h0.5
				l0.2,15.3h-9.3L162.9,66.3z M246.8,58.9L231.7,103H254c9.6,0,15-2.1,19.5-6.9c5.6-5.9,10.6-21.2,10.5-29.6
				c-0.2-8.6-5.7-14.2-17.4-14.2h-20.3l-0.4,1.3l0.9,0.9C247.7,55.4,247.7,56.5,246.8,58.9z M259,64.3h5.5c3.8,0,5.9,1.3,5.9,4.2
				c0,1.9-0.5,4.5-2.4,10c-1.7,5-3.1,7.8-5.1,10c-1.6,1.7-3.7,2.4-8.5,2.4h-4.6L259,64.3z M180.4,103h12.7l11.1-32.8l6.5,32.8h12.7
				l17.3-50.6l-13.3,0l-9.3,27.5l-5.3-27.5H195l-0.4,1.3l0.9,0.9c0.9,0.9,0.9,2,0.1,4.4L180.4,103z M331,70.5h-33.7l-4.4,12.1h23.4
				l-26.5,9l-1.6,4.3l38.2-12.6L331,70.5z M288.4,144.3l3.9-10.6h-17.8l2.8-8.1h19.3l4.2-11.7h-36.4l-0.5,1.5l0.9,0.9
				c0.9,0.9,0.9,2,0.1,4.4l-15.2,44h34l4.1-11.8h-19.8l2.9-8.5H288.4z M353.5,48.3c-41.9-21.7-94.1-30-140.9-30
				c-46.8,0-98.9,8.3-140.9,30C48.2,60.5,18.3,82.4,18.3,112c0,29.6,29.9,51.5,53.4,63.7c41.9,21.6,94.1,29.9,140.9,29.9
				c46.8,0,99-8.3,140.9-29.9c23.5-12.2,53.4-34.1,53.4-63.7C406.9,82.4,377,60.5,353.5,48.3z M351.3,171.5
				c-41.3,21.3-92.6,29.4-138.7,29.4c-46.1,0-97.4-8.1-138.7-29.4C52.1,160.2,23,139.4,23,112c0-27.4,29-48.2,50.9-59.5
				C115.2,31.1,166.5,23,212.6,23c46.1,0,97.4,8.1,138.7,29.4c21.9,11.3,50.9,32.1,50.9,59.5C402.2,139.4,373.2,160.2,351.3,171.5z
				 M361.9,32C322,11.4,268.9,0,212.6,0C156.3,0,103.3,11.4,63.3,32C39.7,44.2,0,70.9,0,112c0,41.1,39.7,67.7,63.3,80
				c39.9,20.6,92.9,32,149.3,32c56.3,0,109.4-11.4,149.3-32c23.7-12.2,63.3-38.9,63.3-80C425.3,70.9,385.6,44.2,361.9,32z
				 M356.7,181.9c-38.4,19.8-89.5,30.7-144.1,30.7c-54.6,0-105.7-10.9-144.1-30.7C31.7,162.8,11.3,138,11.3,112
				c0-26,20.3-50.9,57.2-69.9c38.4-19.8,89.5-30.7,144.1-30.7c54.6,0,105.7,10.9,144.1,30.7c36.9,19.1,57.2,43.9,57.2,69.9
				C413.9,138,393.6,162.8,356.7,181.9z M328.1,113.9h-21.9l-0.4,1.3l0.9,0.9c0.9,0.9,0.9,2,0.1,4.4l-15.3,44.1h14l6-17.5h4.7
				l5.3,17.5h14l-6.6-17.9c3.8-0.6,5.7-1.7,7.7-3.4c2.6-2.4,4.5-5.8,6-10.8c2.2-7.2,0.9-11.3-0.5-13.5
				C339.9,116.1,335.8,113.9,328.1,113.9z M329.3,132.3c-0.9,2.2-1.8,2.7-3.1,3.2c-0.9,0.3-2.6,0.5-4.3,0.5h-6.7l3.6-10.5h8.1
				c2.4,0,3.4,1.3,3.4,2.7C330.3,129.1,329.9,130.8,329.3,132.3z M106.9,120.5L68.7,133l-4.7,12.8h33.7l4.4-12.1H78.8l26.5-9
				L106.9,120.5z M141.9,113.9h-21.9l-0.4,1.3l0.9,0.9c0.9,0.9,0.9,2,0.1,4.4l-15.3,44.1h14l6-17.5l4.7,0l5.3,17.5h14l-6.6-17.9
				c3.8-0.6,5.8-1.7,7.7-3.4c2.6-2.4,4.5-5.8,6-10.8c2.2-7.2,0.9-11.3-0.5-13.5C153.8,116.1,149.7,113.9,141.9,113.9z M143.1,132.3
				c-0.9,2.2-1.8,2.7-3.1,3.2c-0.8,0.3-2.6,0.5-4.4,0.5H129l3.6-10.5h8.1c2.4,0,3.4,1.3,3.4,2.7
				C144.1,129.1,143.7,130.8,143.1,132.3z M246,113.9l-18.5,36.4H227l-0.9-36.4h-15.5l-0.6,1.3l1.3,0.8c1.3,0.9,1.6,1.8,1.8,4.4
				l2.1,44.2h17.3l27.9-50.6H246z M190,113.3h-1.6c-9.5,0-15,2.6-19.5,7.3c-5.6,5.9-10.8,21.8-10.7,30.2c0.1,8.6,5.7,14.5,17.3,14.5
				h1.7c9.6,0,15-2.6,19.5-7.3c5.6-5.9,10.7-21.8,10.6-30.2C207.2,119.3,201.7,113.3,190,113.3z M190.8,140.1
				c-1.7,5-3.1,8.2-5.1,10.3c-1.6,1.7-3.7,2.9-8.5,2.9c-3.8,0-5.9-1.5-5.9-4.5c0-1.9,0.5-4.7,2.5-10.3c1.7-5,3.1-8.2,5.1-10.3
				c1.6-1.7,3.7-2.9,8.5-2.9c3.8,0,5.9,1.5,5.9,4.4C193.3,131.7,192.8,134.6,190.8,140.1z"/>
		</g>
	</g>
</g>
</svg>
