<svg xmlns="http://www.w3.org/2000/svg" viewBox="0 0 216 36">
    <defs>
        <style>.mclaren-logo-svg-1{fill:#fff;}</style>
    </defs>
    <g>
        <path class="mclaren-logo-svg-1"
              d="m164.43155,32.27333h7.36687v-10.53651h6.03819c2.04874,0,3.07597.58588,3.07597,2.44093v8.09558h7.36756v-8.64064c0-4.06293-2.38664-5.82516-9.15199-5.82516h-14.6966v14.46581Z"/>
        <path class="mclaren-logo-svg-1"
              d="m154.63927,17.80818h-8.4137c-5.92949,0-8.31827,1.85637-8.31827,6.02463v2.86748c0,3.63175,2.40555,5.57303,7.76297,5.57303h15.64115v-3.80159h-14.18486c-1.38054,0-1.85171-.37852-1.85171-1.35738v-.58982h11.17197c3.85277,0,6.0102-1.12699,6.0102-3.84372v-.66094c0-2.46001-1.29359-4.21169-7.81775-4.21169m-.49633,6.07003h-8.90173v-.91171c0-.82022.37017-1.35805,1.53127-1.35805h7.31714c1.01174,0,1.50465.29097,1.50465,1.15596,0,.76691-.40663,1.11381-1.45133,1.11381"/>
        <path class="mclaren-logo-svg-1"
              d="m122.5366,32.27333h7.36687v-9.49904c0-.64117.27483-1.03747,1.17513-1.03747h5.74163v-3.9293h-8.24193c-4.38847,0-6.0417,1.54697-6.0417,4.12153v10.34427Z"/>
        <path class="mclaren-logo-svg-1"
              d="m112.56963,17.80772h-15.28211v3.80093h13.85252c1.37909,0,1.85873.43513,1.85873,1.38373v.57007h-11.15314c-4.6443,0-6.04033,1.79909-6.04033,4.0886v.54836c0,3.1861,2.68611,4.07412,8.02736,4.07412h8.20898c5.78374,0,8.29106-1.21454,8.29106-5.50983v-3.35726c0-3.63242-2.37825-5.59872-7.76306-5.59872m.42914,9.29695c0,.80509-.37026,1.36727-1.50396,1.36727h-7.315c-.95286,0-1.47871-.27056-1.47871-1.0809,0-.81298.36315-1.20533,1.47871-1.20533h8.81897v.91896Z"/>
    </g>
    <polygon class="mclaren-logo-svg-1"
             points="78.33418 32.27333 94.35526 32.27333 94.35526 28.34534 85.70173 28.34534 85.70173 15.50286 78.33418 15.50286 78.33418 32.27333"/>
    <g>
        <path class="mclaren-logo-svg-1"
              d="m62.09014,32.27333h14.03825v-3.90296h-12.98234c-1.5376,0-2.56406-.67014-2.56406-2.72926v-1.26852c0-1.8636.9633-2.63577,2.54301-2.63577h13.0034v-3.9293h-14.25778c-6.29761,0-8.67312,2.47779-8.67312,6.45711v1.59898c0,4.54282,2.48695,6.40971,8.89266,6.40971"/>
        <path class="mclaren-logo-svg-1"
              d="m47.01319,15.5022c-2.20237,0-3.74202.84064-5.30204,2.0578l-9.4388,7.32868v-9.38649h-4.11989c-2.4807,0-4.00983.88672-5.63233,2.10785L2.82857,32.27267h8.87297l13.06998-9.92759v9.92759h6.1504l12.68013-9.99276v9.99276h7.50082V15.5022h-4.08968Z"/>
        <path class="mclaren-logo-svg-1"
              d="m207.07848,3.72647c-4.09328,0-9.86512,1.14806-16.11788,3.29341-5.21509,1.78855-10.37694,4.06687-15.95937,7.37147,3.26658-1.2514,9.70935-2.66607,15.02192-2.66607,7.1713,0,12.28265,2.57653,4.73759,11.60557,22.24303-13.66006,21.62885-19.60439,12.31774-19.60439"/>
    </g>
</svg>