<svg xmlns="http://www.w3.org/2000/svg" viewBox="0 0 64 80">
    <defs>
        <style>.rolls-royce-logo-svg-1{fill:#fff;}</style>
    </defs>
    <path class="rolls-royce-logo-svg-1"
          d="m36.64715,13.32195h-11.59832v21.97448c-1.39939.62321-2.92482,1.1776-4.57658,1.62958-.80316.23153-1.7075.41842-2.64516.58908V14.29958s.20966-3.33028-1.77203-4.45469v-.42097h18.53466c.8286.94918,1.57602,2.23431,2.05743,3.89802m3.26928,30.05924c8.39813-3.78226,12.45207-10.44707,12.52478-18.07417.04726-5.19111-1.89533-8.3766-4.08179-10.0716-.12574-.10014-.26269-.19201-.3972-.28644-.14575-.61269-.31661-1.20918-.52597-1.79769-.43747-1.22483-.961-2.34752-1.55993-3.37465.39446.0495.77287.11833,1.10641.17863,6.08837,1.21943,10.98936,4.59663,13.31036,11.12007,1.88143,5.31656.97191,11.90571-3.08203,17.20719-.96007,1.24814-3.50467,3.91311-6.44706,5.89-.52623.35981-.85072.55977-1.40483.88803,3.66707,5.51651,5.47789,8.69688,7.82404,14.71288,2.03801,5.26962,3.59706,12.25786,3.8073,13.90393.50596,3.9077,1.75509,4.23111,2.04049,4.30222v.42041h-14.64041l-.00573-.42041c.45352-.22102,4.41175-1.74023,4.43387-7.56423.01757-4.28175-1.09402-8.99669-3.11809-14.27684-.90467-2.35975-2.67641-6.16334-4.35572-9.0513l-.04786-.06884c-.74165.32114-1.79718.67072-2.97541,1.02769-.75922-1.65262-1.53116-3.15107-2.40521-4.66489m-14.8676-.47047v3.57148c1.10882-.04181,4.56656-.30208,7.68192-.87467.7053,1.50045,1.31851,2.91186,1.74659,4.01806l.05333.15531c-1.27369.19427-2.64519.36779-4.18482.53361-2.08864.22045-4.10942.34646-5.29701.42013v23.0767c0,.49891.12663,3.22161,2.01016,4.16825v.42041h-11.24206v-.42041c1.83109-.90453,2.01016-3.66933,2.01016-4.16825v-29.66813c2.39342-.29439,5.00828-.69887,7.22174-1.2325m1.55661-37.3103l-1.57269-.02134h-14.64947v33.83582c1.45849-.05774,6.86696-.48611,10.41073-1.46375,11.81619-3.28021,17.45946-11.03047,17.55247-20.13726.04726-5.30403-1.94019-8.55267-4.17121-10.2875-1.38848-1.07519-3.22471-1.58436-4.5632-1.76354-.74742-.14422-2.4213-.16243-3.00663-.16243M3.02706,67.38716V6.57493s.21206-3.39542-1.80901-4.54912v-.42582h25.04626c2.09348.0054,4.83165.20479,6.50035.54385,6.22531,1.24047,11.21995,4.68394,13.58792,11.34365,1.92322,5.43004.99339,12.15573-3.14354,17.5596-.98282,1.27972-3.58315,3.99958-6.57036,6.01031-.54838.36807-.87072.56776-1.44998.90965,3.74795,5.63997,5.60178,8.86728,7.98943,15.01498,2.08772,5.37201,3.66707,12.513,3.88245,14.19008.52353,3.98933,1.79718,4.39125,2.08531,4.47545v.42894h-14.94031v-.42894c.46262-.22841,4.49626-1.86596,4.51564-7.81597.01698-4.36024-1.11126-9.1702-3.17442-14.5607-.92072-2.40726-2.72637-6.28395-4.44844-9.23819l-.04996-.07083c-1.98472.84623-6.17531,1.99738-8.89895,2.48349-1.94836.34418-3.91944.63061-6.3519.88576-2.13076.22613-4.18545.35753-5.41428.43122v23.62481c0,.51769.13758,3.28819,2.05806,4.26042v.42894H.969v-.42894c1.87052-.92217,2.05806-3.74273,2.05806-4.26042"/>
</svg>