<svg xmlns="http://www.w3.org/2000/svg" xmlns:xlink="http://www.w3.org/1999/xlink" viewBox="0 0 214 48">
    <defs>
        <style>
            .triumph-logo-cls-1{fill:#fff;}.triumph-logo-cls-1,.triumph-logo-cls-2{fill-rule:evenodd;}.triumph-logo-cls-2{fill:#fefefe;}.triumph-logo-cls-3{mask:url(#mask-triumph-1);}.triumph-logo-cls-4{mask:url(#mask-triumph);}
        </style>
        <mask id="mask-triumph" x="26.89667" y="8.68762" width="142.43722" height="36.4697" maskUnits="userSpaceOnUse">
            <g>
                <polygon class="triumph-logo-cls-1"
                         points="26.89667 45.15713 169.33389 45.15713 169.33389 8.68762 26.89667 8.68762 26.89667 45.15713"/>
            </g>
        </mask>
        <mask id="mask-triumph-1" x="175.94778" y="3.86466" width="36.15268" height="32.11636" maskUnits="userSpaceOnUse">
            <g>
                <polygon class="triumph-logo-cls-1"
                         points="175.94778 3.86466 212.10046 3.86466 212.10046 35.98102 175.94778 35.98102 175.94778 3.86466"/>
            </g>
        </mask>
    </defs>
    <g>
        <g>
            <g>
                <path class="triumph-logo-cls-2"
                      d="m116.78885,31.39297V8.45271h-4.30167c-1.60151,0-2.1698.75146-3.20197,2.11614l-6.6647,8.86993-7.36857-10.98607h-4.62893c-1.54176,0-1.77033,1.31566-1.77033,2.10143v20.83883h5.30111v-15.10952l7.18832,10.16109h2.25291l7.53844-10.1052v15.05364h5.65538Z"/>
                <path class="triumph-logo-cls-2"
                      d="m129.51226,20.50566v-8.24771h2.09949c3.86928,0,4.44667,2.26462,4.44667,3.6126,0,4.41894-5.17433,4.64344-6.21198,4.64344-.11816,0-.1834-.00294-.1834-.00294l-.15078-.00539Zm.33962,3.81259c.81418,0,3.6814-.09019,6.37116-1.26319,3.46043-1.50876,5.21537-4.15032,5.21537-7.8492,0-2.0308-.8226-6.75316-8.45236-6.75316h-7.93924c-1.46574,0-1.68474,1.31808-1.68474,2.10237v20.83789h6.15019v-7.0757h.1572c.03115,0,.08898.00098.18242.00098h0Z"/>
                <path class="triumph-logo-cls-2"
                      d="m83.92278,8.45271h-4.63471c-1.52028,0-1.74751,1.35581-1.74751,2.16313v12.72097c0,4.25815-2.33735,5.15227-4.30029,5.15227-1.96088,0-4.29926-.89412-4.29926-5.15227v-14.8841h-4.63419c-1.51977,0-1.74699,1.35581-1.74699,2.16313v13.19981c0,4.15471,1.85317,9.10666,10.68044,9.10666,8.82831,0,10.6825-4.95195,10.6825-9.10666v-15.36295Z"/>
                <path class="triumph-logo-cls-2"
                      d="m51.05671,31.39297h6.57321V8.45271h-4.77207c-1.56762,0-1.80115,1.31563-1.80115,2.10139v20.83887Z"/>
                <g>
                    <g class="triumph-logo-cls-4">
                        <path class="triumph-logo-cls-2"
                              d="m33.88308,20.56826c-.1245,0-.19361-.00338-.19361-.00338l-.15985-.0058v-8.12085h2.16983c4.12654,0,4.74166,2.22883,4.74166,3.55743,0,4.35285-5.46178,4.5726-6.55804,4.5726h0Zm135.45081,10.71334V8.68762h-4.76276c-1.56368,0-1.79844,1.29721-1.79844,2.07042v3.77379l-.134.02415c-3.03133.53463-6.09009,1.60292-9.35723,3.26621l-.24902.12798v-9.26255h-4.76592c-1.56368,0-1.79791,1.29721-1.79791,2.07042v11.19678l-.067.04491c-1.01291.69932-1.95986,1.38366-2.7934,1.9859l-.20469.1473c-17.00257,12.22064-33.94183,17.73113-54.92534,17.86346-.2184.0029-.44209.0029-.66155.0029-9.67008.00048-18.94978-1.47059-26.83778-4.25578-9.18051-3.24158-16.11575-8.0769-20.6121-14.37412l-.1092-.1531.18517-.07244c3.80684-1.47349,5.73874-4.09882,5.73874-7.80114,0-2.00136-.87891-6.65268-9.0175-6.65268h-8.4699c-1.56315,0-1.79738,1.29818-1.79738,2.06994v20.52453h6.63295v-6.97432l.17304.00435c.00264,0,.14402.00483.38986,0l.08072-.00048.05276.0565c8.64399,9.4823,25.07153,20.78677,54.25112,20.78677,21.83181,0,39.63521-5.58631,57.72032-18.11073l.27117-.1869v4.42192h6.56383v-8.79505l.0765-.0454c3.50455-2.0709,6.5153-3.23047,9.47014-3.64388l.19361-.02656v12.51089h6.56121Z"/>
                    </g>
                </g>
                <path class="triumph-logo-cls-2"
                      d="m24.76385,8.45271H3.57769c-1.50431,0-1.82009,1.14368-1.82009,2.10059v3.35456h8.07963v17.48511h6.80997V13.90786h6.25899c1.61593,0,1.85766-1.3182,1.85766-2.10255v-3.3526Z"/>
                <g>
                    <g class="triumph-logo-cls-3">
                        <path class="triumph-logo-cls-2"
                              d="m210.44385,8.36905l-14.47719,25.02829c-.54471.94576-1.1256,1.34948-1.94266,1.34948s-1.39795-.40372-1.94214-1.34948l-14.47719-25.02829c-.41344-.74698-.52352-1.54416-.29199-2.13231.18398-.47237.56073-.80692,1.11939-.99546.29561-.09837.6305-.14192,1.0827-.14192h29.01897c.45117,0,.78709.04355,1.0827.14192.55815.18854.9349.52309,1.11991.99546.2305.58815.12145,1.38534-.29251,2.13231m1.64291-1.76958c-.02687-.28485-.09096-.55741-.18915-.80897-.16383-.41806-.41551-.78079-.74885-1.07692-.31267-.27768-.69303-.49389-1.13076-.64195l-.00775-.00205c-.22532-.07429-.45995-.12655-.71474-.15985-.22946-.02972-.47856-.04508-.76177-.04508h-29.01897c-.28269,0-.53231.01537-.76177.04508-.2553.0333-.48941.08556-.71474.15985l-.00827.00205c-.4367.14806-.8181.36427-1.12973.64195-.33437.29613-.58605.65886-.74885,1.07692-.09923.25155-.16279.52411-.18915.80897-.02481.2618-.01757.53385.02016.80999.03721.2618.10078.52821.1907.79104.08786.25873.20259.51438.33902.76235l.01137.01998,14.4777,25.02881c.17468.3033.35246.561.54264.78694.10388.12347.21292.23823.32404.34121.11731.11015.24135.21005.369.29766.26512.18444.55453.32379.86048.41396.28941.08658.60207.12962.92663.12962.32559,0,.63722-.04304.92766-.12962.30491-.09017.59484-.22952.86047-.41396.12713-.08761.25117-.18751.36796-.29766.11111-.10298.22016-.21774.32352-.34121.19122-.22594.36848-.48364.54419-.78694l14.47615-25.02881.0124-.01998c.13644-.24797.25117-.50362.33902-.76235.08992-.26282.15401-.52924.19019-.79104.03772-.27615.04496-.54819.02119-.80999"/>
                    </g>
                </g>
                <polygon class="triumph-logo-cls-2"
                         points="199.16471 16.23415 202.56231 18.00607 203.25447 16.84815 199.16471 14.82156 204.4646 14.82156 205.52724 13.04076 197.31073 13.04076 197.31073 26.80492 199.16471 23.6979 199.16471 16.23415"/>
                <polygon class="triumph-logo-cls-2"
                         points="188.88341 16.23415 185.48508 18.00607 184.79339 16.84815 188.88341 14.82156 183.58371 14.82156 182.52099 13.04076 190.73751 13.04076 190.73751 26.80492 188.88341 23.6979 188.88341 16.23415"/>
            </g>
        </g>
    </g>
</svg>